<?xml version="1.0" encoding="utf-8"?><svg viewBox="0 0 1920 1293" xmlns="http://www.w3.org/2000/svg" xmlns:xlink="http://www.w3.org/1999/xlink"><style>:root>svg{display:none}:root>svg:target{display:block}</style><svg fill="none" viewBox="0 0 1920 248" id="1" xmlns="http://www.w3.org/2000/svg"><g clip-path="url(#aaclip0_2202_1470)"><ellipse cx="960" cy="894.5" rx="1390" ry="894.5" fill="#453866"/></g><defs><clipPath id="aaclip0_2202_1470"><path fill="#fff" d="M0 0h1920v248H0z"/></clipPath></defs></svg><svg fill="none" viewBox="0 0 1920 1293" id="2" xmlns="http://www.w3.org/2000/svg"><g clip-path="url(#abclip0_2202_1476)"><ellipse cx="960" cy="646.5" rx="1390" ry="894.5" fill="#453866"/></g><defs><clipPath id="abclip0_2202_1476"><path fill="#fff" d="M0 0h1920v1293H0z"/></clipPath></defs></svg><svg fill="none" viewBox="0 0 1920 248" id="3" xmlns="http://www.w3.org/2000/svg"><g clip-path="url(#acclip0_2202_1478)"><ellipse cx="960" cy="-646.5" rx="1390" ry="894.5" fill="#453866"/></g><defs><clipPath id="acclip0_2202_1478"><path fill="#fff" d="M0 0h1920v248H0z"/></clipPath></defs></svg><svg fill="none" viewBox="0 0 1920 248" id="409" xmlns="http://www.w3.org/2000/svg"><g clip-path="url(#adclip0_2203_1476)"><path fill-rule="evenodd" clip-rule="evenodd" d="M1920 247.603V0H0v247.603C249.529 94.208 587.668 0 960 0c372.33 0 710.47 94.208 960 247.603z" fill="#fff"/></g><defs><clipPath id="adclip0_2203_1476"><path fill="#fff" d="M0 0h1920v248H0z"/></clipPath></defs></svg><svg viewBox="0 0 176 166" id="Star" xmlns="http://www.w3.org/2000/svg"><g filter="url(#aefilter0_d_865_93)"><svg width="168" height="158" fill="none" xmlns="http://www.w3.org/2000/svg"><path d="M72.976 7.125c4.65-8.909 17.399-8.909 22.048 0 3.36 6.441 11.504 8.641 17.651 4.769l1.634-1.03c8.136-5.125 18.638 1.211 17.897 10.799-.55 7.107 5.331 13.048 12.443 12.573l2.092-.14c9.464-.633 15.366 10.068 9.781 17.735-4.175 5.732-1.967 13.88 4.496 16.797 8.89 4.012 8.89 16.732 0 20.744-6.463 2.917-8.671 11.065-4.496 16.797 5.585 7.668-.317 18.368-9.781 17.735l-2.092-.14c-7.112-.475-12.993 5.466-12.443 12.573.741 9.588-9.761 15.924-17.897 10.799l-1.634-1.03c-6.147-3.872-14.29-1.672-17.651 4.769-4.65 8.909-17.399 8.909-22.048 0-3.36-6.441-11.504-8.641-17.651-4.769l-1.634 1.03c-8.137 5.125-18.638-1.211-17.897-10.799.55-7.107-5.33-13.048-12.443-12.573l-2.092.14c-9.464.633-15.366-10.067-9.782-17.735 4.176-5.732 1.968-13.88-4.496-16.797-8.89-4.012-8.89-16.732 0-20.744 6.464-2.917 8.672-11.065 4.496-16.797-5.584-7.668.318-18.368 9.782-17.735l2.092.14c7.112.475 12.993-5.466 12.443-12.573-.741-9.588 9.76-15.924 17.897-10.799l1.634 1.03c6.147 3.872 14.29 1.672 17.651-4.769z" fill="#AEA1BE"/></svg></g><defs><filter id="aefilter0_d_865_93" x=".814" y=".943" width="174.371" height="164.113" filterUnits="userSpaceOnUse" color-interpolation-filters="sRGB"><feFlood flood-opacity="0" result="BackgroundImageFix"/><feColorMatrix in="SourceAlpha" values="0 0 0 0 0 0 0 0 0 0 0 0 0 0 0 0 0 0 127 0" result="hardAlpha"/><feOffset dy="2"/><feGaussianBlur stdDeviation="1.75"/><feComposite in2="hardAlpha" operator="out"/><feColorMatrix values="0 0 0 0 0 0 0 0 0 0 0 0 0 0 0 0 0 0 0.25 0"/><feBlend in2="BackgroundImageFix" result="effect1_dropShadow_865_93"/><feBlend in="SourceGraphic" in2="effect1_dropShadow_865_93" result="shape"/></filter></defs></svg><svg viewBox="0 0 19 15" id="arrow-left" xmlns="http://www.w3.org/2000/svg"><path d="M8.346 1.345a.75.75 0 00-1.06-1.06l-6.25 6.25a.75.75 0 000 1.06l6.25 6.25a.75.75 0 101.06-1.06l-4.97-4.97h14.44a.75.75 0 000-1.5H3.376l4.97-4.97z"/></svg><svg viewBox="0 0 19 15" id="arrow-right" xmlns="http://www.w3.org/2000/svg"><path d="M10.649 13.794a.75.75 0 01.01-1.06l5.022-4.919-14.44-.148a.75.75 0 11.016-1.5l14.439.148-4.919-5.02a.749.749 0 111.071-1.05l6.186 6.314a.75.75 0 01-.011 1.06l-6.314 6.186a.75.75 0 01-1.06-.011z"/></svg><svg viewBox="0 0 256 256" id="check" xmlns="http://www.w3.org/2000/svg"><path d="M205.006 44.953c6.592 4.27 8.477 13.077 4.207 19.67L117.07 206.844a14.22 14.22 0 01-11.94 6.489 14.209 14.209 0 01-10.677-4.829L48.05 155.758c-5.188-5.898-4.615-14.883 1.28-20.074 5.91-5.191 14.89-4.608 20.075 1.283l34.001 38.65 81.931-126.461c4.277-6.592 13.085-8.473 19.67-4.203z" fill="#3f2e5c" stroke-miterlimit="10" font-family="none" font-weight="none" font-size="none" text-anchor="none"/></svg><svg viewBox="0 0 21 24" id="delete" xmlns="http://www.w3.org/2000/svg"><path d="M3.924 24a2.32 2.32 0 01-1.716-.718 2.387 2.387 0 01-.708-1.74V2.694H0V1.172h6V0h9v1.172h6v1.522h-1.5v18.848c0 .7-.231 1.285-.693 1.755-.462.47-1.039.704-1.731.703H3.924zM18 2.694H3v18.848a.893.893 0 00.924.936h13.154c.23 0 .441-.097.634-.292.193-.195.289-.41.288-.645V2.694zM7.212 19.434h1.5V5.737h-1.5v13.697zm5.076 0h1.5V5.737h-1.5v13.697z"/></svg><svg viewBox="0 0 17 15" id="door" xmlns="http://www.w3.org/2000/svg"><path d="M3.346 8.715v5.156h3.75v-3.75a.938.938 0 01.937-.937h.938a.938.938 0 01.937.937v3.75h3.75V8.715M1.471 7.778l6.368-6.369a.938.938 0 011.326 0l6.368 6.369"/></svg><svg fill="none" viewBox="0 0 20 16" id="email" xmlns="http://www.w3.org/2000/svg"><path d="M17 0H3a3 3 0 00-3 3v10a3 3 0 003 3h14a3 3 0 003-3V3a3 3 0 00-3-3zm-.41 2l-5.88 5.88a1 1 0 01-1.42 0L3.41 2h13.18zM18 13a1 1 0 01-1 1H3a1 1 0 01-1-1V3.41l5.88 5.88a3 3 0 004.24 0L18 3.41V13z" fill="#9EA5AD"/></svg><svg fill="none" viewBox="0 0 27 15" id="footer-mail" xmlns="http://www.w3.org/2000/svg"><path d="M0 2.63l12.85 5.68h.29L26 2.63M26 14h-.57c-3.39-.41-9.04-.61-12.43-.61-3.4 0-9.05.2-12.44.61H0V.6C3.39.2 9.6 0 13 0c3.39 0 9.6.2 13 .6V14z" stroke="#FBFBFB"/></svg><svg fill="none" viewBox="0 0 29 21" id="footer-tel" xmlns="http://www.w3.org/2000/svg"><defs><clipPath id="ama"><path fill="#fff" fill-opacity="0" d="M0 0h28.185v20.716H0z"/></clipPath></defs><path fill="none" d="M0 0h28.185v20.716H0z"/><g clip-path="url(#ama)"><path d="M18.26 9.47c2.44-1.9 2.44-4.97 0-6.86m2.81 9.04c4-3.1 4-8.12 0-11.22M15.85 7.6c1.11-.87 1.11-2.26 0-3.12m-7.71-.6h4.19v4.1H8.84v8.2h3.49v4.1H8.14c-5.38-4.53-5.38-11.87 0-16.4z" stroke="#FBFBFB"/></g></svg><svg viewBox="0 0 16 16" id="heart" xmlns="http://www.w3.org/2000/svg"><path d="M8 16a.47.47 0 01-.305-.116c-2.78-2.395-4.696-4.457-6.036-6.492-1.71-2.6-2.1-5-1.16-7.134C1.169.734 3.094-.514 5.345.212 6.418.556 7.354 1.292 8 2.302c.646-1.01 1.582-1.746 2.655-2.09 2.246-.715 4.176.522 4.846 2.046.94 2.134.55 4.534-1.16 7.134-1.34 2.035-3.255 4.097-6.036 6.492A.47.47 0 018 16zM4.064 1.116a2.72 2.72 0 00-1.536.402c-.47.286-.86.709-1.13 1.222C.625 4.503.975 6.465 2.47 8.733A30.226 30.226 0 008 14.742a30.222 30.222 0 005.53-6.004c1.501-2.273 1.846-4.235 1.071-5.992-.5-1.109-2-1.99-3.67-1.47a3.897 3.897 0 00-1.458.875c-.426.401-.77.896-1.013 1.454a.546.546 0 01-.184.25.466.466 0 01-.279.094.466.466 0 01-.278-.094.546.546 0 01-.184-.25 4.373 4.373 0 00-1.01-1.457 3.862 3.862 0 00-1.46-.871 3.325 3.325 0 00-1-.16z"/></svg><svg viewBox="0 0 11 11" id="heart-sticer" xmlns="http://www.w3.org/2000/svg"><path d="M5.5 9.91a.306.306 0 01-.186-.065c-1.7-1.32-2.87-2.457-3.688-3.578C.58 4.834.342 3.51.916 2.334c.41-.84 1.587-1.527 2.962-1.127.655.19 1.227.595 1.622 1.152a3.016 3.016 0 011.622-1.152c1.372-.394 2.552.287 2.961 1.127.575 1.177.336 2.5-.709 3.933-.818 1.121-1.989 2.258-3.688 3.578a.306.306 0 01-.186.064zM3.095 1.704a1.803 1.803 0 00-1.628.895c-.474.972-.26 2.054.654 3.303A17.456 17.456 0 005.5 9.216a17.456 17.456 0 003.38-3.31c.916-1.252 1.127-2.334.653-3.303-.305-.61-1.222-1.097-2.242-.81a2.444 2.444 0 00-1.51 1.284.305.305 0 01-.565 0 2.423 2.423 0 00-1.51-1.283 2.234 2.234 0 00-.61-.089z"/></svg><svg fill="none" viewBox="0 0 20 22" id="idisnik" xmlns="http://www.w3.org/2000/svg"><defs><clipPath id="apa"><path fill="#fff" fill-opacity="0" d="M0 0h20v22H0z"/></clipPath></defs><path fill="none" d="M0 0h20v22H0z"/><g clip-path="url(#apa)" stroke="#FBFBFB"><path d="M2.11 9.04c0 2.28.85 4.46 2.36 6.07 2.61 2.79 4.42 3.65 5.69 5.68 1.27-2.03 3.13-2.94 5.69-5.68 1.47-1.61 2.3-3.79 2.28-6.05-.01-2.26-.86-4.42-2.35-6.02-1.5-1.6-3.53-2.5-5.64-2.52-2.12-.01-4.16.87-5.67 2.45v-.01c-1.51 1.62-2.36 3.8-2.36 6.08z"/><path d="M12.25 11.27c-.55.6-1.31.93-2.09.93-.79 0-1.54-.33-2.1-.93-.55-.59-.87-1.39-.87-2.23 0-.84.32-1.65.87-2.24.56-.59 1.31-.93 2.1-.93.78 0 1.54.34 2.09.93.56.59.87 1.4.87 2.24 0 .84-.31 1.64-.87 2.23z"/></g></svg><svg fill="none" viewBox="0 0 20 19" id="input-tel" xmlns="http://www.w3.org/2000/svg"><path d="M17.43 10c-.21 0-.44-.08-.66-.13-.45-.09-.89-.22-1.31-.39-.47-.16-.98-.15-1.44.03-.45.18-.83.53-1.04.97l-.22.45c-.98-.54-1.87-1.21-2.66-2s-1.46-1.68-2-2.66L8.52 6a2.014 2.014 0 001-2.48c-.16-.43-.29-.87-.4-1.32-.04-.22-.08-.45-.11-.68-.13-.7-.5-1.34-1.05-1.79-.55-.46-1.24-.71-1.95-.69h-3c-.44-.01-.86.08-1.26.26-.39.17-.74.43-1.03.75C.44.38.23.76.1 1.17c-.12.41-.15.85-.09 1.27a19 19 0 005.43 11.07c2.99 2.98 6.89 4.88 11.09 5.39h.38c.73.01 1.44-.26 2-.76.31-.28.56-.62.74-1.01.17-.39.26-.81.26-1.24v-3c-.02-.69-.27-1.36-.72-1.89-.45-.53-1.07-.88-1.76-1zm.5 6c0 .14-.03.28-.08.41-.06.13-.15.24-.25.34-.12.09-.25.16-.39.21-.14.04-.29.05-.43.04-3.75-.49-7.23-2.2-9.89-4.87a16.973 16.973 0 01-4.82-9.92.905.905 0 01.04-.43c.04-.14.11-.27.21-.39.09-.1.2-.19.33-.25.13-.05.27-.08.42-.08h3c.23-.01.45.07.64.21.18.14.31.35.36.58.03.27.09.54.15.8.11.53.26 1.05.46 1.55l-1.4.65c-.12.06-.23.14-.32.23-.09.1-.16.21-.21.34-.04.12-.06.25-.06.38.01.14.04.27.1.38 1.43 3.09 3.91 5.57 7 7 .24.11.51.11.76 0 .12-.04.23-.11.33-.2.1-.09.18-.19.24-.32l.62-1.39c.51.18 1.04.33 1.58.46.26.06.53.1.8.14.23.05.44.18.58.36.14.19.22.41.21.64l.02 3.13z" fill="#9EA5AD"/></svg><svg fill="none" viewBox="0 0 16 20" id="inpyt-castle" xmlns="http://www.w3.org/2000/svg"><path d="M8 11c-.31-.01-.61.08-.86.25a1.517 1.517 0 00-.61 1.59c.07.3.24.56.47.76V15c0 .26.1.51.29.7A1 1 0 008 16c.26 0 .51-.11.7-.3.19-.19.3-.44.3-.7v-1.4c.22-.2.39-.46.46-.76a1.51 1.51 0 00-.61-1.59c-.25-.17-.55-.26-.85-.25zm5-4V5a5.003 5.003 0 00-5-5C6.67 0 5.4.52 4.46 1.46S3 3.67 3 5v2c-.8 0-1.56.31-2.13.87C.31 8.44 0 9.2 0 10v7c0 .79.31 1.55.87 2.12.57.56 1.33.88 2.13.88h10c.79 0 1.55-.32 2.12-.88.56-.57.88-1.33.88-2.12v-7c0-.8-.32-1.56-.88-2.13C14.55 7.31 13.79 7 13 7zM5 5c0-.8.31-1.56.87-2.13a3.028 3.028 0 014.25 0c.56.57.88 1.33.88 2.13v2H5V5zm9 12c0 .26-.11.51-.3.7-.19.19-.44.3-.7.3H3a1 1 0 01-.71-.3A.984.984 0 012 17v-7a.99.99 0 011-1h10c.26 0 .51.1.7.29a1 1 0 01.3.71v7z" fill="#9EA5AD"/></svg><svg fill="none" viewBox="0 0 139 69" id="logo" xmlns="http://www.w3.org/2000/svg"><defs><clipPath id="asa"><path fill="#fff" fill-opacity="0" d="M0 0h139v68.723H0z"/></clipPath></defs><path fill="none" d="M0 0h139v68.723H0z"/><g clip-path="url(#asa)" fill="#60318F"><path d="M1.84 42.77c.11.35.2.69.32 1.04.05.16.11.35.2.51.06.16.14.32.2.48.58 1.28 1.35 2.4 2.19 3.36.84.96 1.76 1.78 2.65 2.48.92.69 1.82 1.28 2.71 1.73 1.76.93 3.34 1.47 4.67 1.71.32.05.63.1.95.13.29.03.58.03.84.03s.51-.03.72-.08c.23-.06.43-.11.63-.19.78-.29 1.24-.83 1.47-1.63.23-.8.12-1.46-.29-2.02-.08-.14-.23-.27-.34-.4-.15-.14-.29-.27-.47-.38-.17-.13-.37-.24-.57-.34-.2-.11-.43-.24-.66-.35-.96-.45-2.17-.91-3.52-1.52a26.2 26.2 0 01-2.16-1.04c-.75-.4-1.53-.88-2.28-1.44-.75-.56-1.47-1.23-2.1-2.03-.09-.1-.15-.21-.23-.29-.09-.11-.15-.21-.23-.32-.15-.21-.26-.43-.41-.67-.23-.45-.46-.96-.6-1.46-.15-.54-.26-1.07-.29-1.66-.03-.56.03-1.17.17-1.76.29-1.2.95-2.4 2.11-3.38 1.12-.99 2.71-1.76 4.55-2.11.86-.16 1.79-.24 2.74-.24.57.03 1.15.08 1.7.19 1.44.21 2.85.58 4.21 1.06 1.35.48 2.68 1.07 3.94 1.71 1.27.64 2.48 1.39 3.66 2.13.58.4 1.19.78 1.73 1.2.58.4 1.13.83 1.67 1.26l3.32 2.58c2.22 1.74 4.47 3.44 6.74 5.12 4.53 3.36 9.17 6.64 14.04 9.68 1.21.75 2.45 1.5 3.69 2.22 1.24.72 2.5 1.41 3.8 2.1 2.56 1.34 5.22 2.59 7.98 3.66 2.77 1.06 5.62 1.94 8.62 2.5 2.97.56 6.08.75 9.16.4h.09c1.93-.21 3.83-.66 5.62-1.3.81-.22 1.56-.43 2.28-.67 1.55-.53 2.97-1.12 4.2-1.76 1.24-.61 2.34-1.25 3.23-1.84 1.85-1.23 3.03-2.32 3.52-3.23.46-.93.23-1.65-.9-2.29-1.12-.64-1.98-.61-2.79-.03-.84.56-1.59 1.68-2.77 3.12-.57.72-1.27 1.52-2.1 2.38-.84.82-1.87 1.7-3.14 2.5-.61.38-1.24.75-1.96 1.07-1.7.61-3.52 1.04-5.36 1.23h-.09c-2.94.32-5.94.13-8.85-.4-2.91-.54-5.7-1.42-8.41-2.46s-5.33-2.29-7.87-3.6c-1.27-.66-2.54-1.36-3.77-2.08-1.24-.72-2.45-1.44-3.66-2.21-4.85-3.01-9.46-6.27-13.98-9.63-2.25-1.68-4.5-3.38-6.72-5.09l-3.31-2.59c-.55-.42-1.12-.85-1.7-1.28-.58-.42-1.18-.82-1.76-1.2-1.21-.77-2.45-1.52-3.75-2.18a30.71 30.71 0 00-4.09-1.76c-1.41-.51-2.88-.88-4.41-1.12-.66-.11-1.32-.16-2.01-.19-.93-.08-1.88-.11-2.8-.03-2.07.16-4.09.78-5.73 1.82-1.68 1.04-2.92 2.48-3.66 4-.38.77-.64 1.54-.81 2.34-.15.8-.2 1.58-.17 2.32.08.75.23 1.5.4 2.19z"/><path d="M138.58 42.77c-.11.35-.2.69-.31 1.04-.06.16-.12.35-.2.51-.06.16-.15.32-.21.48-.57 1.28-1.35 2.4-2.19 3.36-.83.96-1.75 1.78-2.65 2.48-.92.69-1.81 1.28-2.71 1.73-1.75.93-3.34 1.47-4.66 1.71-.32.05-.64.1-.96.13-.28.03-.57.03-.83.03s-.52-.03-.72-.08c-.23-.06-.43-.11-.64-.19-.77-.29-1.23-.83-1.47-1.63-.23-.8-.11-1.46.29-2.02.09-.14.23-.27.35-.4.14-.14.29-.27.46-.38.17-.13.37-.24.58-.34.2-.11.43-.24.66-.35.95-.45 2.16-.91 3.51-1.52.7-.29 1.42-.64 2.17-1.04s1.52-.88 2.27-1.44c.75-.56 1.47-1.23 2.11-2.03.08-.1.14-.21.23-.29.08-.11.14-.21.23-.32.14-.21.26-.43.4-.67.23-.45.46-.96.61-1.46.14-.54.26-1.07.28-1.66.03-.56-.02-1.17-.17-1.76-.29-1.2-.95-2.4-2.1-3.38-1.13-.99-2.71-1.76-4.56-2.11-.86-.16-1.78-.24-2.73-.24-.58.03-1.16.08-1.7.19-1.44.21-2.86.58-4.21 1.06-1.36.48-2.68 1.07-3.95 1.71-1.27.64-2.48 1.39-3.66 2.13-.58.4-1.18.78-1.73 1.2-.57.4-1.12.83-1.67 1.26l-3.31 2.58c-2.22 1.74-4.47 3.44-6.75 5.12-4.52 3.36-9.16 6.64-14.03 9.68-1.21.75-2.45 1.5-3.69 2.22-1.24.72-2.51 1.41-3.81 2.1-2.56 1.34-5.21 2.59-7.98 3.66-2.77 1.06-5.62 1.94-8.62 2.5-2.96.56-6.08.75-9.16.4h-.09c-1.93-.21-3.83-.66-5.62-1.3-.8-.22-1.55-.43-2.27-.67-1.56-.53-2.97-1.12-4.21-1.76-1.24-.61-2.33-1.25-3.23-1.84-1.84-1.23-3.02-2.32-3.51-3.23-.46-.93-.23-1.65.89-2.29 1.12-.64 1.99-.61 2.8-.03.83.56 1.58 1.68 2.76 3.12.58.72 1.27 1.52 2.11 2.38.83.82 1.87 1.7 3.14 2.5.6.38 1.24.75 1.96 1.07 1.7.61 3.51 1.04 5.36 1.23h.08c2.94.32 5.94.13 8.85-.4 2.91-.54 5.71-1.42 8.42-2.46 2.7-1.04 5.33-2.29 7.86-3.6 1.27-.66 2.54-1.36 3.78-2.08 1.24-.72 2.45-1.44 3.66-2.21 4.84-3.01 9.45-6.27 13.98-9.63 2.24-1.68 4.49-3.38 6.71-5.09l3.31-2.59c.55-.42 1.13-.85 1.71-1.28.57-.42 1.18-.82 1.75-1.2 1.21-.77 2.45-1.52 3.75-2.18 1.3-.67 2.65-1.26 4.09-1.76 1.41-.51 2.88-.88 4.41-1.12.66-.11 1.33-.16 2.02-.19.92-.08 1.87-.11 2.79-.03 2.08.16 4.1.78 5.74 1.82 1.67 1.04 2.91 2.48 3.66 4 .37.77.63 1.54.81 2.34.14.8.2 1.58.17 2.32-.12.75-.23 1.5-.41 2.19z"/><path d="M109.65 25.28c-.75-1.84-1.99-3.36-3.63-4.38-1.64-1.04-3.63-1.6-5.85-1.6-.52 0-1.04.03-1.59.11-.28-2.83-1.29-5.17-2.76-6.91-1.79-2.1-4.27-3.22-6.98-3.22-1.47 0-3.02.34-4.55 1.01a13.485 13.485 0 00-5.36-5.97c-2.33-1.39-5.04-2.08-7.72-2.08-3.61 0-7.21 1.2-9.95 3.68-1.38 1.25-2.53 2.8-3.34 4.69-.03.08-.06.13-.09.21-1.93-1.06-3.86-1.6-5.7-1.6-2.71 0-5.19 1.12-7 3.23-1.47 1.73-2.48 4.08-2.77 6.91-.55-.06-1.07-.11-1.59-.11-2.99 0-5.53.99-7.37 2.77-.93.88-1.65 1.98-2.14 3.2-.49 1.23-.75 2.59-.75 4.06 0 3.06 1.13 6.48 3.58 9.89.03.05.08.11.14.16 8.88 7.6 16.89 11.65 23.06 13.76 6.16 2.13 10.49 2.35 11.99 2.35.37 0 .57 0 .57-.03.23-.03.43-.13.58-.32.14.19.34.32.57.32.03 0 .21.03.58.03 1.5 0 5.82-.22 12.02-2.32 6.17-2.11 14.21-6.14 23.08-13.74.06-.05.09-.1.15-.16 2.45-3.41 3.6-6.82 3.6-9.89-.03-1.47-.29-2.83-.78-4.05zm-24.7-13.31c1.36-.59 2.65-.85 3.89-.85 2.34 0 4.35.96 5.82 2.66 1.21 1.42 2.05 3.39 2.31 5.87-1.56.35-3.2.91-4.9 1.76-.06.03-.11.05-.17.11a79.247 79.247 0 00-7.15 6.93c.58-3.41.92-7.17.92-11.31.06-1.89-.23-3.62-.72-5.17zm-38.67 1.79c1.47-1.71 3.51-2.67 5.82-2.67 1.61 0 3.34.48 5.1 1.47-.37 1.38-.58 2.9-.58 4.56 0 4.98.58 9.52 1.47 13.57-2.5-3.01-5.5-6.13-9.1-9.2-.06-.05-.12-.08-.18-.11-1.7-.85-3.34-1.44-4.9-1.76.32-2.48 1.16-4.45 2.37-5.86zm11.5 37.52c-6-2.06-13.78-5.98-22.45-13.42-2.22-3.14-3.17-6.13-3.14-8.61 0-1.2.2-2.29.6-3.25.58-1.47 1.59-2.67 2.94-3.52 1.35-.86 3.08-1.36 5.07-1.36 2.16 0 4.64.58 7.35 1.94 4.61 3.98 8.24 8 11.1 11.82 1.24 4.08 2.76 7.57 4.32 10.42 1.87 3.5 3.77 6.08 5.1 7.71.06.19.12.37.14.51-1.78-.06-5.67-.4-11.03-2.24zm13.31 1.84l-.03.02c-1.04-1.14-3.63-4.18-6.22-9.01-3.32-6.19-6.57-15.28-6.57-27.04 0-2.21.4-4.08 1.09-5.71 1.04-2.42 2.74-4.24 4.84-5.49 2.08-1.23 4.53-1.87 6.98-1.87 3.28 0 6.54 1.12 8.93 3.31 1.21 1.09 2.19 2.43 2.88 4.05.69 1.63 1.1 3.52 1.1 5.71 0 12.85-3.43 21.97-6.83 27.89-1.7 2.96-3.4 5.12-4.67 6.54a16 16 0 01-1.5 1.6zm34.53-15.2c-8.68 7.41-16.49 11.33-22.48 13.36-4.44 1.52-7.87 2.02-9.92 2.18 1.39-1.46 3.4-3.89 5.39-7.41 2.05-3.57 4.12-8.29 5.48-14.19 2.42-2.88 5.3-5.86 8.73-8.8 2.68-1.33 5.19-1.92 7.35-1.92 2.68 0 4.84.91 6.31 2.35.75.72 1.33 1.57 1.7 2.56.4.99.61 2.05.61 3.25 0 2.51-.95 5.47-3.17 8.62z"/></g></svg><svg fill="none" viewBox="0 0 141 67" id="logo-flowers" xmlns="http://www.w3.org/2000/svg"><defs><clipPath id="ata"><path transform="translate(0 -.838)" fill="#fff" fill-opacity="0" d="M0 0h141v66.996H0z"/></clipPath></defs><path fill="none" d="M0-.838h141v66.996H0z"/><g clip-path="url(#ata)" fill="#FBFBFB"><path d="M1.82 40.86c.12.34.2.67.32 1.01.05.16.11.34.2.5.05.15.14.31.2.46.57 1.25 1.34 2.34 2.17 3.28.83.94 1.74 1.74 2.63 2.42.91.67 1.8 1.25 2.68 1.69 1.74.91 3.31 1.43 4.63 1.66.31.05.63.1.94.13.29.03.57.03.83.03s.51-.03.71-.08c.23-.05.43-.11.63-.18.77-.29 1.23-.81 1.46-1.59.23-.78.11-1.43-.29-1.97-.08-.13-.22-.26-.34-.39-.14-.13-.28-.26-.46-.37-.17-.13-.37-.23-.57-.34-.2-.1-.43-.23-.65-.33-.95-.45-2.15-.89-3.49-1.49-.68-.28-1.4-.62-2.14-1.01-.74-.39-1.52-.86-2.26-1.4-.74-.55-1.46-1.2-2.08-1.98-.09-.1-.15-.21-.23-.29-.09-.1-.15-.2-.23-.31-.14-.21-.26-.41-.4-.65-.23-.44-.46-.93-.6-1.43-.14-.52-.26-1.04-.29-1.61-.03-.55.03-1.14.18-1.72.28-1.17.94-2.34 2.08-3.3 1.11-.96 2.69-1.71 4.51-2.05.86-.16 1.77-.24 2.72-.24.57.03 1.14.08 1.68.19 1.43.2 2.83.57 4.17 1.04 1.35.46 2.66 1.04 3.92 1.66 1.25.62 2.45 1.35 3.62 2.08.58.39 1.18.75 1.72 1.17.57.39 1.11.81 1.66 1.22l3.28 2.52c2.2 1.69 4.43 3.36 6.68 5 4.49 3.27 9.09 6.47 13.92 9.43 1.2.73 2.42 1.46 3.65 2.16 1.23.7 2.49 1.38 3.77 2.05 2.55 1.3 5.17 2.53 7.92 3.57 2.74 1.04 5.57 1.89 8.54 2.44 2.94.55 6.02.73 9.08.39h.09c1.91-.21 3.8-.65 5.57-1.27.8-.21 1.54-.42 2.25-.65 1.55-.52 2.95-1.1 4.17-1.72 1.23-.6 2.32-1.22 3.2-1.79 1.83-1.2 3-2.27 3.49-3.15.46-.91.23-1.61-.89-2.24-1.11-.62-1.97-.59-2.77-.02-.83.54-1.57 1.64-2.74 3.04-.57.7-1.26 1.48-2.09 2.31-.82.81-1.85 1.67-3.11 2.45-.6.36-1.23.73-1.94 1.04-1.69.6-3.49 1.01-5.31 1.19h-.09c-2.91.32-5.88.13-8.77-.39-2.88-.52-5.66-1.37-8.34-2.39-2.69-1.01-5.29-2.23-7.8-3.51-1.26-.65-2.51-1.32-3.74-2.03-1.23-.7-2.43-1.4-3.63-2.15-4.8-2.94-9.37-6.11-13.85-9.39-2.23-1.64-4.46-3.3-6.66-4.96l-3.28-2.53c-.55-.41-1.12-.83-1.69-1.24-.57-.42-1.17-.81-1.74-1.17-1.2-.76-2.43-1.49-3.72-2.14-1.28-.65-2.62-1.22-4.05-1.71-1.4-.5-2.86-.86-4.37-1.09-.66-.11-1.32-.16-2-.19-.92-.07-1.86-.1-2.77-.02-2.06.15-4.06.75-5.69 1.77-1.65 1.01-2.88 2.41-3.63 3.9-.37.75-.62 1.5-.8 2.28-.14.78-.2 1.54-.17 2.27.09.72.23 1.45.4 2.13z"/><path d="M137.37 40.86c-.12.34-.2.67-.32 1.01-.05.16-.11.34-.2.5-.05.15-.14.31-.2.46-.57 1.25-1.34 2.34-2.17 3.28-.83.94-1.74 1.74-2.63 2.42-.91.67-1.8 1.25-2.68 1.69-1.74.91-3.31 1.43-4.63 1.66-.31.05-.63.1-.94.13-.29.03-.57.03-.83.03s-.51-.03-.71-.08a5.21 5.21 0 01-.63-.18c-.77-.29-1.23-.81-1.46-1.59-.23-.78-.11-1.43.29-1.97.08-.13.23-.26.34-.39.14-.13.29-.26.46-.37.17-.13.37-.23.57-.34.2-.1.43-.23.66-.33.94-.45 2.14-.89 3.48-1.49.69-.28 1.4-.62 2.14-1.01.75-.39 1.52-.86 2.26-1.4.74-.55 1.46-1.2 2.08-1.98.09-.1.15-.21.23-.29.09-.1.15-.2.23-.31.14-.21.26-.41.4-.65.23-.44.46-.93.6-1.43.14-.52.26-1.04.29-1.61a6.02 6.02 0 00-.17-1.72c-.29-1.17-.95-2.34-2.09-3.3-1.11-.96-2.68-1.71-4.51-2.05-.86-.16-1.77-.24-2.72-.24-.57.03-1.14.08-1.68.19-1.43.2-2.83.57-4.17 1.04-1.35.46-2.66 1.04-3.92 1.66-1.25.62-2.45 1.35-3.62 2.08-.58.39-1.18.75-1.72 1.17-.57.39-1.11.81-1.65 1.22l-3.29 2.52c-2.2 1.69-4.43 3.36-6.69 5-4.48 3.27-9.08 6.47-13.91 9.43-1.2.73-2.42 1.46-3.65 2.16-1.23.7-2.49 1.38-3.77 2.05-2.55 1.3-5.17 2.53-7.92 3.57-2.74 1.04-5.57 1.89-8.54 2.44-2.94.55-6.02.73-9.08.39h-.09c-1.91-.21-3.8-.65-5.57-1.27-.8-.21-1.54-.42-2.25-.65-1.55-.52-2.95-1.1-4.17-1.72-1.23-.6-2.32-1.22-3.2-1.79-1.83-1.2-3-2.27-3.49-3.15-.46-.91-.23-1.61.89-2.24 1.11-.62 1.97-.59 2.77-.02.83.54 1.57 1.64 2.74 3.04.57.7 1.26 1.48 2.09 2.31.82.81 1.85 1.67 3.11 2.45.6.36 1.23.73 1.94 1.04 1.69.6 3.49 1.01 5.31 1.19h.09c2.91.32 5.88.13 8.77-.39 2.89-.52 5.66-1.37 8.34-2.39 2.69-1.01 5.29-2.23 7.8-3.51 1.26-.65 2.51-1.32 3.74-2.03 1.23-.7 2.43-1.4 3.63-2.15 4.8-2.94 9.37-6.11 13.85-9.39 2.23-1.64 4.46-3.3 6.66-4.96l3.28-2.53c.55-.41 1.12-.83 1.69-1.24.57-.42 1.17-.81 1.74-1.17 1.2-.76 2.43-1.49 3.72-2.14 1.28-.65 2.62-1.22 4.05-1.71 1.4-.5 2.86-.86 4.37-1.09.66-.11 1.32-.16 2-.19.92-.07 1.86-.1 2.77-.02 2.06.15 4.06.75 5.69 1.77a9.7 9.7 0 013.63 3.9c.37.75.62 1.5.8 2.28.14.78.2 1.54.17 2.27-.12.72-.23 1.45-.4 2.13z"/><path d="M108.69 23.8c-.74-1.79-1.97-3.27-3.6-4.26-1.63-1.01-3.6-1.56-5.8-1.56-.52 0-1.03.03-1.57.1-.29-2.75-1.29-5.04-2.74-6.73C93.2 9.3 90.75 8.2 88.06 8.2c-1.45 0-3 .34-4.51.99-1.2-2.57-3.11-4.52-5.31-5.82-2.32-1.35-5-2.03-7.66-2.03-3.57 0-7.14 1.17-9.85 3.59a12.909 12.909 0 00-3.32 4.57c-.03.08-.06.13-.08.21-1.92-1.04-3.83-1.56-5.66-1.56-2.68 0-5.14 1.09-6.94 3.15-1.46 1.69-2.46 3.98-2.74 6.73-.55-.05-1.06-.1-1.57-.1-2.98 0-5.49.96-7.32 2.7-.91.86-1.63 1.93-2.11 3.12-.49 1.2-.74 2.52-.74 3.95 0 2.99 1.11 6.32 3.54 9.65.03.05.08.1.14.15 8.8 7.41 16.74 11.37 22.85 13.42 6.12 2.08 10.4 2.29 11.89 2.29.37 0 .57 0 .57-.03.23-.03.43-.13.57-.31.14.18.34.31.57.31.03 0 .2.03.57.03 1.49 0 5.77-.21 11.91-2.26 6.12-2.06 14.09-5.98 22.89-13.39.05-.06.08-.11.14-.16 2.43-3.33 3.57-6.66 3.57-9.64-.03-1.43-.29-2.76-.77-3.96zM84.21 10.83c1.34-.57 2.62-.83 3.85-.83 2.32 0 4.32.93 5.77 2.6 1.2 1.38 2.03 3.3 2.29 5.72-1.54.34-3.17.88-4.86 1.71-.05.03-.11.06-.17.11-2.68 2.26-5.03 4.52-7.08 6.76.57-3.33.91-7 .91-11.03.06-1.84-.23-3.53-.71-5.04zm-38.34 1.74c1.46-1.66 3.49-2.6 5.77-2.6 1.6 0 3.32.47 5.06 1.43-.37 1.35-.57 2.84-.57 4.45 0 4.86.57 9.28 1.45 13.23a73.545 73.545 0 00-9.02-8.97.623.623 0 00-.17-.1c-1.69-.83-3.32-1.41-4.86-1.72.31-2.42 1.14-4.34 2.34-5.72zm11.4 36.58c-5.94-2-13.66-5.82-22.25-13.08-2.2-3.06-3.15-5.98-3.12-8.39 0-1.17.2-2.24.6-3.17.57-1.43 1.57-2.6 2.92-3.44 1.34-.83 3.05-1.32 5.02-1.32 2.15 0 4.6.57 7.29 1.9 4.57 3.87 8.17 7.79 11 11.51 1.22 3.98 2.74 7.39 4.28 10.17 1.86 3.4 3.74 5.93 5.06 7.51.05.18.11.37.14.5-1.77-.06-5.63-.39-10.94-2.19zm13.2 1.8l-.03.02c-1.03-1.12-3.6-4.08-6.17-8.79-3.29-6.03-6.52-14.89-6.52-26.36 0-2.16.4-3.98 1.09-5.56 1.03-2.37 2.71-4.14 4.8-5.36 2.06-1.19 4.48-1.82 6.91-1.82 3.26 0 6.49 1.09 8.86 3.23a10.94 10.94 0 012.85 3.95c.69 1.58 1.09 3.43 1.09 5.56 0 12.53-3.4 21.42-6.77 27.2-1.69 2.88-3.37 4.99-4.63 6.37-.6.72-1.14 1.24-1.48 1.56zm34.22-14.82c-8.6 7.22-16.34 11.05-22.28 13.02-4.4 1.48-7.8 1.98-9.83 2.13 1.37-1.43 3.37-3.79 5.34-7.22 2.03-3.49 4.09-8.09 5.43-13.84 2.4-2.8 5.26-5.71 8.65-8.57 2.66-1.3 5.15-1.88 7.29-1.88 2.66 0 4.8.89 6.26 2.29.74.7 1.31 1.54 1.68 2.5.4.96.6 2 .6 3.17 0 2.44-.94 5.33-3.14 8.4z"/></g></svg><svg fill="none" viewBox="0 0 141 67" id="logo-footer" xmlns="http://www.w3.org/2000/svg"><defs><clipPath id="aua"><path transform="translate(0 -.838)" fill="#fff" fill-opacity="0" d="M0 0h141v66.996H0z"/></clipPath></defs><path fill="none" d="M0-.838h141v66.996H0z"/><g clip-path="url(#aua)" fill="#FBFBFB"><path d="M1.82 40.86c.12.34.2.67.32 1.01.05.16.11.34.2.5.05.15.14.31.2.46.57 1.25 1.34 2.34 2.17 3.28.83.94 1.74 1.74 2.63 2.42.91.67 1.8 1.25 2.68 1.69 1.74.91 3.31 1.43 4.63 1.66.31.05.63.1.94.13.29.03.57.03.83.03s.51-.03.71-.08c.23-.05.43-.11.63-.18.77-.29 1.23-.81 1.46-1.59.23-.78.11-1.43-.29-1.97-.08-.13-.22-.26-.34-.39-.14-.13-.28-.26-.46-.37-.17-.13-.37-.23-.57-.34-.2-.1-.43-.23-.65-.33-.95-.45-2.15-.89-3.49-1.49-.68-.28-1.4-.62-2.14-1.01-.74-.39-1.52-.86-2.26-1.4-.74-.55-1.46-1.2-2.08-1.98-.09-.1-.15-.21-.23-.29-.09-.1-.15-.2-.23-.31-.14-.21-.26-.41-.4-.65-.23-.44-.46-.93-.6-1.43-.14-.52-.26-1.04-.29-1.61-.03-.55.03-1.14.18-1.72.28-1.17.94-2.34 2.08-3.3 1.11-.96 2.69-1.71 4.51-2.05.86-.16 1.77-.24 2.72-.24.57.03 1.14.08 1.68.19 1.43.2 2.83.57 4.17 1.04 1.35.46 2.66 1.04 3.92 1.66 1.25.62 2.45 1.35 3.62 2.08.58.39 1.18.75 1.72 1.17.57.39 1.11.81 1.66 1.22l3.28 2.52c2.2 1.69 4.43 3.36 6.68 5 4.49 3.27 9.09 6.47 13.92 9.43 1.2.73 2.42 1.46 3.65 2.16 1.23.7 2.49 1.38 3.77 2.05 2.55 1.3 5.17 2.53 7.92 3.57 2.74 1.04 5.57 1.89 8.54 2.44 2.94.55 6.02.73 9.08.39h.09c1.91-.21 3.8-.65 5.57-1.27.8-.21 1.54-.42 2.25-.65 1.55-.52 2.95-1.1 4.17-1.72 1.23-.6 2.32-1.22 3.2-1.79 1.83-1.2 3-2.27 3.49-3.15.46-.91.23-1.61-.89-2.24-1.11-.62-1.97-.59-2.77-.02-.83.54-1.57 1.64-2.74 3.04-.57.7-1.26 1.48-2.09 2.31-.82.81-1.85 1.67-3.11 2.45-.6.36-1.23.73-1.94 1.04-1.69.6-3.49 1.01-5.31 1.19h-.09c-2.91.32-5.88.13-8.77-.39-2.88-.52-5.66-1.37-8.34-2.39-2.69-1.01-5.29-2.23-7.8-3.51-1.26-.65-2.51-1.32-3.74-2.03-1.23-.7-2.43-1.4-3.63-2.15-4.8-2.94-9.37-6.11-13.85-9.39-2.23-1.64-4.46-3.3-6.66-4.96l-3.28-2.53c-.55-.41-1.12-.83-1.69-1.24-.57-.42-1.17-.81-1.74-1.17-1.2-.76-2.43-1.49-3.72-2.14-1.28-.65-2.62-1.22-4.05-1.71-1.4-.5-2.86-.86-4.37-1.09-.66-.11-1.32-.16-2-.19-.92-.07-1.86-.1-2.77-.02-2.06.15-4.06.75-5.69 1.77-1.65 1.01-2.88 2.41-3.63 3.9-.37.75-.62 1.5-.8 2.28-.14.78-.2 1.54-.17 2.27.09.72.23 1.45.4 2.13z"/><path d="M137.37 40.86c-.12.34-.2.67-.32 1.01-.05.16-.11.34-.2.5-.05.15-.14.31-.2.46-.57 1.25-1.34 2.34-2.17 3.28-.83.94-1.74 1.74-2.63 2.42-.91.67-1.8 1.25-2.68 1.69-1.74.91-3.31 1.43-4.63 1.66-.31.05-.63.1-.94.13-.29.03-.57.03-.83.03s-.51-.03-.71-.08a5.21 5.21 0 01-.63-.18c-.77-.29-1.23-.81-1.46-1.59-.23-.78-.11-1.43.29-1.97.08-.13.23-.26.34-.39.14-.13.29-.26.46-.37.17-.13.37-.23.57-.34.2-.1.43-.23.66-.33.94-.45 2.14-.89 3.48-1.49.69-.28 1.4-.62 2.14-1.01.75-.39 1.52-.86 2.26-1.4.74-.55 1.46-1.2 2.08-1.98.09-.1.15-.21.23-.29.09-.1.15-.2.23-.31.14-.21.26-.41.4-.65.23-.44.46-.93.6-1.43.14-.52.26-1.04.29-1.61a6.02 6.02 0 00-.17-1.72c-.29-1.17-.95-2.34-2.09-3.3-1.11-.96-2.68-1.71-4.51-2.05-.86-.16-1.77-.24-2.72-.24-.57.03-1.14.08-1.68.19-1.43.2-2.83.57-4.17 1.04-1.35.46-2.66 1.04-3.92 1.66-1.25.62-2.45 1.35-3.62 2.08-.58.39-1.18.75-1.72 1.17-.57.39-1.11.81-1.65 1.22l-3.29 2.52c-2.2 1.69-4.43 3.36-6.69 5-4.48 3.27-9.08 6.47-13.91 9.43-1.2.73-2.42 1.46-3.65 2.16-1.23.7-2.49 1.38-3.77 2.05-2.55 1.3-5.17 2.53-7.92 3.57-2.74 1.04-5.57 1.89-8.54 2.44-2.94.55-6.02.73-9.08.39h-.09c-1.91-.21-3.8-.65-5.57-1.27-.8-.21-1.54-.42-2.25-.65-1.55-.52-2.95-1.1-4.17-1.72-1.23-.6-2.32-1.22-3.2-1.79-1.83-1.2-3-2.27-3.49-3.15-.46-.91-.23-1.61.89-2.24 1.11-.62 1.97-.59 2.77-.02.83.54 1.57 1.64 2.74 3.04.57.7 1.26 1.48 2.09 2.31.82.81 1.85 1.67 3.11 2.45.6.36 1.23.73 1.94 1.04 1.69.6 3.49 1.01 5.31 1.19h.09c2.91.32 5.88.13 8.77-.39 2.89-.52 5.66-1.37 8.34-2.39 2.69-1.01 5.29-2.23 7.8-3.51 1.26-.65 2.51-1.32 3.74-2.03 1.23-.7 2.43-1.4 3.63-2.15 4.8-2.94 9.37-6.11 13.85-9.39 2.23-1.64 4.46-3.3 6.66-4.96l3.28-2.53c.55-.41 1.12-.83 1.69-1.24.57-.42 1.17-.81 1.74-1.17 1.2-.76 2.43-1.49 3.72-2.14 1.28-.65 2.62-1.22 4.05-1.71 1.4-.5 2.86-.86 4.37-1.09.66-.11 1.32-.16 2-.19.92-.07 1.86-.1 2.77-.02 2.06.15 4.06.75 5.69 1.77a9.7 9.7 0 013.63 3.9c.37.75.62 1.5.8 2.28.14.78.2 1.54.17 2.27-.12.72-.23 1.45-.4 2.13z"/><path d="M108.69 23.8c-.74-1.79-1.97-3.27-3.6-4.26-1.63-1.01-3.6-1.56-5.8-1.56-.52 0-1.03.03-1.57.1-.29-2.75-1.29-5.04-2.74-6.73C93.2 9.3 90.75 8.2 88.06 8.2c-1.45 0-3 .34-4.51.99-1.2-2.57-3.11-4.52-5.31-5.82-2.32-1.35-5-2.03-7.66-2.03-3.57 0-7.14 1.17-9.85 3.59a12.909 12.909 0 00-3.32 4.57c-.03.08-.06.13-.08.21-1.92-1.04-3.83-1.56-5.66-1.56-2.68 0-5.14 1.09-6.94 3.15-1.46 1.69-2.46 3.98-2.74 6.73-.55-.05-1.06-.1-1.57-.1-2.98 0-5.49.96-7.32 2.7-.91.86-1.63 1.93-2.11 3.12-.49 1.2-.74 2.52-.74 3.95 0 2.99 1.11 6.32 3.54 9.65.03.05.08.1.14.15 8.8 7.41 16.74 11.37 22.85 13.42 6.12 2.08 10.4 2.29 11.89 2.29.37 0 .57 0 .57-.03.23-.03.43-.13.57-.31.14.18.34.31.57.31.03 0 .2.03.57.03 1.49 0 5.77-.21 11.91-2.26 6.12-2.06 14.09-5.98 22.89-13.39.05-.06.08-.11.14-.16 2.43-3.33 3.57-6.66 3.57-9.64-.03-1.43-.29-2.76-.77-3.96zM84.21 10.83c1.34-.57 2.62-.83 3.85-.83 2.32 0 4.32.93 5.77 2.6 1.2 1.38 2.03 3.3 2.29 5.72-1.54.34-3.17.88-4.86 1.71-.05.03-.11.06-.17.11-2.68 2.26-5.03 4.52-7.08 6.76.57-3.33.91-7 .91-11.03.06-1.84-.23-3.53-.71-5.04zm-38.34 1.74c1.46-1.66 3.49-2.6 5.77-2.6 1.6 0 3.32.47 5.06 1.43-.37 1.35-.57 2.84-.57 4.45 0 4.86.57 9.28 1.45 13.23a73.545 73.545 0 00-9.02-8.97.623.623 0 00-.17-.1c-1.69-.83-3.32-1.41-4.86-1.72.31-2.42 1.14-4.34 2.34-5.72zm11.4 36.58c-5.94-2-13.66-5.82-22.25-13.08-2.2-3.06-3.15-5.98-3.12-8.39 0-1.17.2-2.24.6-3.17.57-1.43 1.57-2.6 2.92-3.44 1.34-.83 3.05-1.32 5.02-1.32 2.15 0 4.6.57 7.29 1.9 4.57 3.87 8.17 7.79 11 11.51 1.22 3.98 2.74 7.39 4.28 10.17 1.86 3.4 3.74 5.93 5.06 7.51.05.18.11.37.14.5-1.77-.06-5.63-.39-10.94-2.19zm13.2 1.8l-.03.02c-1.03-1.12-3.6-4.08-6.17-8.79-3.29-6.03-6.52-14.89-6.52-26.36 0-2.16.4-3.98 1.09-5.56 1.03-2.37 2.71-4.14 4.8-5.36 2.06-1.19 4.48-1.82 6.91-1.82 3.26 0 6.49 1.09 8.86 3.23a10.94 10.94 0 012.85 3.95c.69 1.58 1.09 3.43 1.09 5.56 0 12.53-3.4 21.42-6.77 27.2-1.69 2.88-3.37 4.99-4.63 6.37-.6.72-1.14 1.24-1.48 1.56zm34.22-14.82c-8.6 7.22-16.34 11.05-22.28 13.02-4.4 1.48-7.8 1.98-9.83 2.13 1.37-1.43 3.37-3.79 5.34-7.22 2.03-3.49 4.09-8.09 5.43-13.84 2.4-2.8 5.26-5.71 8.65-8.57 2.66-1.3 5.15-1.88 7.29-1.88 2.66 0 4.8.89 6.26 2.29.74.7 1.31 1.54 1.68 2.5.4.96.6 2 .6 3.17 0 2.44-.94 5.33-3.14 8.4z"/></g></svg><svg fill="none" viewBox="0 0 98 46" id="logo-white" xmlns="http://www.w3.org/2000/svg"><path d="M.292 28.826c.083.247.144.493.226.74.041.114.082.247.144.36.041.114.103.228.144.342.41.91.964 1.706 1.56 2.39a13.38 13.38 0 003.817 2.996c1.252.663 2.381 1.043 3.325 1.213.226.038.452.076.678.095.205.02.41.02.595.02s.37-.02.513-.058c.164-.038.308-.076.452-.133.554-.208.882-.587 1.047-1.156.164-.57.082-1.043-.206-1.442-.061-.094-.164-.19-.246-.284a2.16 2.16 0 00-.328-.266 2.852 2.852 0 00-.41-.246c-.145-.076-.309-.17-.473-.247-.677-.322-1.54-.645-2.504-1.08a19.229 19.229 0 01-1.54-.74 12.742 12.742 0 01-1.621-1.024 8.034 8.034 0 01-1.498-1.442c-.062-.076-.103-.152-.165-.208-.061-.076-.102-.152-.164-.228-.102-.152-.185-.303-.287-.474a5.96 5.96 0 01-.431-1.043 5.449 5.449 0 01-.205-1.176c-.021-.398.02-.834.123-1.252a4.55 4.55 0 011.498-2.408c.8-.702 1.93-1.252 3.243-1.498.616-.114 1.273-.171 1.95-.171.41.019.821.057 1.211.133 1.026.151 2.032.417 2.997.758a24.3 24.3 0 012.812 1.214c.903.455 1.765.986 2.607 1.517.41.285.841.55 1.231.854.41.284.8.587 1.19.891l2.361 1.84a219.727 219.727 0 004.803 3.64c3.223 2.39 6.527 4.723 9.996 6.885.862.531 1.745 1.062 2.627 1.574a87.615 87.615 0 002.71 1.498c1.826.948 3.715 1.84 5.685 2.598 1.97.759 4.003 1.385 6.137 1.783 2.114.398 4.331.531 6.527.285h.062a17.71 17.71 0 004.002-.93 26.772 26.772 0 001.622-.474 22.375 22.375 0 002.997-1.252 22.057 22.057 0 002.299-1.308c1.313-.872 2.155-1.65 2.504-2.295.328-.663.164-1.176-.637-1.63-.8-.456-1.416-.437-1.99-.02-.596.398-1.13 1.195-1.971 2.22-.41.511-.903 1.08-1.498 1.687a13.182 13.182 0 01-2.238 1.783c-.43.265-.882.53-1.395.758-1.211.437-2.505.74-3.818.873H62.3c-2.093.227-4.228.095-6.301-.285-2.073-.38-4.064-1.005-5.994-1.745-1.929-.74-3.797-1.63-5.603-2.56a72.787 72.787 0 01-2.689-1.479 71.735 71.735 0 01-2.607-1.574c-3.448-2.143-6.732-4.457-9.955-6.846a437.177 437.177 0 01-4.782-3.623l-2.36-1.84c-.39-.303-.8-.606-1.212-.91-.41-.303-.841-.587-1.252-.853a32.95 32.95 0 00-2.668-1.555 23.133 23.133 0 00-2.914-1.252 17.181 17.181 0 00-3.14-.796 11.864 11.864 0 00-1.438-.133 11.634 11.634 0 00-1.99-.019c-1.478.114-2.915.55-4.085 1.29a7.067 7.067 0 00-2.607 2.844c-.267.55-.452 1.1-.575 1.67a7.625 7.625 0 00-.123 1.65c.062.53.164 1.061.287 1.554z" fill="#fff"/><path d="M97.266 28.826c-.082.247-.144.493-.226.74-.04.114-.082.247-.143.36-.041.114-.103.228-.144.342a9.776 9.776 0 01-1.56 2.39 13.377 13.377 0 01-1.888 1.763c-.657.493-1.293.91-1.93 1.233-1.252.663-2.38 1.043-3.325 1.213a8.296 8.296 0 01-.677.095c-.205.02-.41.02-.595.02s-.37-.02-.514-.058a3.079 3.079 0 01-.451-.133c-.554-.208-.883-.587-1.047-1.156-.164-.57-.082-1.043.205-1.442.062-.094.165-.19.247-.284.102-.095.205-.19.328-.266.123-.095.267-.17.41-.246.144-.076.308-.17.473-.247.677-.322 1.54-.645 2.504-1.08a19.22 19.22 0 001.54-.74 12.735 12.735 0 001.62-1.024 8.034 8.034 0 001.5-1.442c.06-.076.102-.152.163-.208.062-.076.103-.152.165-.228.102-.152.184-.303.287-.474.164-.323.328-.683.43-1.043.103-.38.186-.759.206-1.176.02-.398-.02-.834-.123-1.252a4.549 4.549 0 00-1.498-2.408c-.8-.702-1.93-1.252-3.243-1.498a10.774 10.774 0 00-1.95-.171 8.41 8.41 0 00-1.211.133 16.043 16.043 0 00-2.997.758c-.965.342-1.909.759-2.812 1.214-.903.455-1.765.986-2.607 1.517-.41.285-.841.55-1.231.854-.41.284-.8.587-1.19.891l-2.361 1.84a219.493 219.493 0 01-4.803 3.64c-3.223 2.39-6.527 4.723-9.996 6.885a87.504 87.504 0 01-5.337 3.072c-1.827.948-3.715 1.84-5.685 2.598-1.97.759-4.003 1.385-6.138 1.783-2.114.398-4.33.531-6.527.285h-.061a17.71 17.71 0 01-4.003-.93 26.772 26.772 0 01-1.621-.474 22.376 22.376 0 01-2.997-1.252 22.055 22.055 0 01-2.299-1.308c-1.314-.872-2.155-1.65-2.504-2.295-.328-.663-.164-1.176.636-1.63.8-.456 1.416-.437 1.991-.02.595.398 1.13 1.195 1.97 2.22.411.511.904 1.08 1.5 1.687a13.185 13.185 0 002.236 1.783c.431.265.883.53 1.396.758 1.211.437 2.504.74 3.818.873h.061c2.094.227 4.229.095 6.302-.285 2.073-.38 4.064-1.005 5.993-1.745 1.93-.74 3.797-1.63 5.604-2.56a72.869 72.869 0 002.689-1.479 71.822 71.822 0 002.606-1.574c3.449-2.143 6.733-4.457 9.955-6.846a437.177 437.177 0 004.783-3.623l2.36-1.84c.39-.303.8-.606 1.211-.91.41-.303.842-.587 1.252-.853a32.95 32.95 0 012.668-1.555 23.138 23.138 0 012.915-1.252 17.184 17.184 0 013.14-.796c.473-.076.945-.114 1.437-.133a11.633 11.633 0 011.991-.019c1.478.114 2.915.55 4.085 1.29a7.067 7.067 0 012.607 2.844c.267.55.451 1.1.574 1.67.103.568.144 1.118.123 1.65-.082.53-.164 1.061-.287 1.554z" fill="#fff"/><path d="M76.684 16.386c-.534-1.309-1.416-2.39-2.586-3.11-1.17-.74-2.586-1.139-4.167-1.139-.37 0-.739.02-1.129.076-.205-2.01-.923-3.679-1.97-4.912-1.273-1.498-3.038-2.294-4.967-2.294-1.047 0-2.156.246-3.244.72a9.62 9.62 0 00-3.817-4.248C53.14.493 51.212 0 49.303 0c-2.566 0-5.131.853-7.081 2.617a9.47 9.47 0 00-2.381 3.338c-.02.057-.041.095-.062.152-1.375-.759-2.75-1.138-4.064-1.138-1.93 0-3.695.796-4.988 2.294-1.047 1.233-1.765 2.902-1.97 4.912-.39-.038-.76-.075-1.13-.075-2.134 0-3.94.701-5.254 1.972a6.423 6.423 0 00-1.518 2.276 7.72 7.72 0 00-.534 2.882c0 2.181.8 4.609 2.545 7.036a.51.51 0 00.103.114c6.322 5.405 12.028 8.287 16.42 9.786 4.392 1.517 7.471 1.669 8.539 1.669.267 0 .41 0 .41-.02a.592.592 0 00.41-.227c.103.133.247.228.411.228.02 0 .144.019.41.019 1.068 0 4.147-.152 8.56-1.65 4.392-1.498 10.119-4.362 16.44-9.767.042-.038.063-.076.103-.114 1.745-2.427 2.566-4.855 2.566-7.036-.02-1.043-.205-2.01-.554-2.883zm-17.59-9.464c.964-.417 1.888-.607 2.77-.607 1.663 0 3.1.683 4.147 1.897.862 1.005 1.457 2.408 1.642 4.172a15.072 15.072 0 00-3.49 1.252c-.04.019-.082.038-.123.075a55.7 55.7 0 00-5.09 4.931c.41-2.427.657-5.101.657-8.04a11.01 11.01 0 00-.513-3.68zm-27.546 1.27a5.38 5.38 0 014.146-1.896c1.15 0 2.381.342 3.633 1.043-.266.987-.41 2.067-.41 3.243 0 3.547.41 6.77 1.047 9.653a53.642 53.642 0 00-6.486-6.542.433.433 0 00-.123-.076c-1.211-.607-2.381-1.024-3.49-1.252.226-1.764.821-3.167 1.683-4.172zm8.19 26.684c-4.27-1.46-9.811-4.248-15.99-9.54-1.58-2.237-2.257-4.361-2.237-6.125 0-.853.144-1.63.431-2.313a5.168 5.168 0 012.094-2.504c.965-.607 2.196-.967 3.612-.967 1.54 0 3.305.417 5.235 1.384 3.283 2.826 5.87 5.69 7.902 8.402.882 2.901 1.97 5.386 3.079 7.415a34.565 34.565 0 003.633 5.48c.04.134.082.266.102.361-1.272-.038-4.043-.284-7.861-1.593zm9.483 1.309l-.02.019c-.74-.816-2.587-2.978-4.434-6.41-2.36-4.4-4.68-10.867-4.68-19.23 0-1.575.287-2.902.78-4.06.739-1.725 1.95-3.014 3.448-3.906 1.478-.872 3.223-1.327 4.967-1.327 2.34 0 4.66.796 6.363 2.351a8.107 8.107 0 012.053 2.883c.492 1.157.78 2.503.78 4.058 0 9.141-2.443 15.627-4.865 19.837-1.21 2.105-2.422 3.642-3.325 4.647-.43.53-.82.91-1.067 1.138zm24.59-10.81c-6.179 5.272-11.741 8.06-16.01 9.501-3.161 1.081-5.604 1.441-7.061 1.555.985-1.043 2.422-2.769 3.838-5.272 1.457-2.541 2.935-5.898 3.9-10.09a53.737 53.737 0 016.22-6.258c1.908-.948 3.694-1.365 5.233-1.365 1.909 0 3.448.645 4.495 1.669a4.93 4.93 0 011.211 1.82c.288.702.431 1.46.431 2.314 0 1.783-.677 3.888-2.257 6.126z" fill="#fff"/></svg><svg viewBox="0 0 18 16" id="shop" xmlns="http://www.w3.org/2000/svg"><path fill-rule="evenodd" clip-rule="evenodd" d="M3.405 2.881c.54 1.242.893 2.772 1.11 3.969.256 1.413.307 2.834.307 4.23v.754h9.085c.094-2.301 1.005-4.511 2.593-6.334H5.484v-1H18v.871l-.328.334c-1.799 1.837-2.773 4.148-2.773 6.522v.607H3.822V11.08c0-1.377-.051-2.727-.292-4.052-.212-1.174-.548-2.613-1.042-3.748-.248-.568-.522-1.03-.816-1.342-.29-.308-.567-.438-.839-.438v-1c.634 0 1.156.317 1.566.752.407.43.736 1.01 1.006 1.63zM4.45 15.322A1.746 1.746 0 013.822 14h1c0 .195.089.4.28.564.193.166.47.27.77.27.301 0 .577-.104.77-.27.191-.164.28-.37.28-.564h1c0 .513-.237.986-.628 1.322-.388.334-.9.512-1.422.512a2.186 2.186 0 01-1.422-.512zm5.426 0A1.746 1.746 0 019.248 14h1c0 .195.09.4.28.564.193.166.47.27.77.27.301 0 .578-.104.77-.27.192-.164.28-.37.28-.564h1c0 .513-.237.986-.627 1.322-.389.334-.901.512-1.423.512a2.186 2.186 0 01-1.422-.512z"/></svg><svg fill="none" viewBox="0 0 22 17" id="telegramm-footer" xmlns="http://www.w3.org/2000/svg"><defs><clipPath id="axa"><path transform="translate(0 -.13)" fill="#fff" fill-opacity="0" d="M0 0h21.004v16.571H0z"/></clipPath></defs><path fill="none" d="M0-.13h21.004v16.571H0z"/><g clip-path="url(#axa)"><path d="M4.81 8.84l10.94-4.83m-1.31 12.08c.87-5.26 2.79-10.38 5.69-15.16l.22-.37-.23-.18-.47.17C13.59 2.84 7.1 4.36.43 5.04v.18l4.38 3.45v5.35h.22l1.55-1.17c.61-.46 1.29-.86 2.02-1.19l5.62 4.43h.22z" stroke="#FBFBFB"/></g></svg><svg fill="none" viewBox="0 0 20 20" id="user" xmlns="http://www.w3.org/2000/svg"><path d="M13.092 10.592a5 5 0 10-6.183 0 8.333 8.333 0 00-5.184 6.816.838.838 0 101.667.184 6.667 6.667 0 0113.25 0 .833.833 0 00.833.741h.092a.834.834 0 00.733-.916 8.332 8.332 0 00-5.208-6.825zM10 10a3.333 3.333 0 110-6.666A3.333 3.333 0 0110 10z" fill="#9EA5AD"/></svg><svg fill="none" viewBox="0 0 21 17" id="vk-footer" xmlns="http://www.w3.org/2000/svg"><defs><clipPath id="aza"><path transform="translate(-.004 -.13)" fill="#fff" fill-opacity="0" d="M0 0h21.004v16.571H0z"/></clipPath></defs><path fill="none" d="M-.004-.13H21v16.571H-.004z"/><g clip-path="url(#aza)"><path d="M3.48 3.35c0 2.7 2.05 6.4 5.61 7.23V3.35h2.81v3.57c2.15-.38 4.67-1.63 4.67-3.57h2.81c0 1.99-1.56 3.67-3.63 4.69 2.13.91 4.57 2.85 4.57 4.91h-2.81c-.08-1.97-3.56-3.37-5.61-3.61v3.61h-1.41C4.51 12.95.67 7.6.67 3.35h2.81z" stroke="#FBFBFB" stroke-linejoin="round"/></g></svg><svg fill="none" viewBox="0 0 21 17" id="watsapp-footer" xmlns="http://www.w3.org/2000/svg"><defs><clipPath id="baa"><path transform="translate(-.984)" fill="#fff" fill-opacity="0" d="M0 0h21.004v16.571H0z"/></clipPath></defs><path fill="none" d="M-.984 0H20.02v16.571H-.984z"/><g clip-path="url(#baa)" stroke="#FBFBFB" stroke-linejoin="round"><path d="M7.1 10.18C5.35 8.8 4.05 6.03 5.57 4.83c.45-.35 1.05-.39 1.42-.38.22.01.4.11.53.25l.83.92c.12.13.18.29.16.46-.01.16-.1.31-.25.43l-.79.62c.15.35.61 1.17 1.31 1.73.7.55 1.75.92 2.19 1.03l.79-.62a1.055 1.055 0 011.13-.07l1.16.65c.18.1.31.25.32.42.01.29-.04.77-.48 1.12-1.52 1.2-5.03.18-6.79-1.21z"/><path d="M18.7 8.28c0-4-4.11-7.25-9.19-7.25C4.44 1.03.32 4.28.32 8.28c0 1.32.45 2.56 1.23 3.63l-.77 3.26 4.14-.61c1.4.64 2.98.97 4.59.97 5.08 0 9.19-3.25 9.19-7.25z"/></g></svg></svg>