<svg xmlns="http://www.w3.org/2000/svg" viewBox="0 0 504.49 137.86"><g data-name="Слой 2"><g data-name="Слой 1"><path d="M488.18 33.12a7.6 7.6 0 0 0-2.61-6.21Q483 24.75 478 24.75h-9.1v16.74h9.1q5 0 7.61-2.19a7.65 7.65 0 0 0 2.57-6.18Zm.21 30.6-9.27-13.38H468.9v13.38h-11.12v-48h20.79a26.61 26.61 0 0 1 11.08 2.13 15.9 15.9 0 0 1 9.78 15.3 16.33 16.33 0 0 1-2.57 9.23 16.41 16.41 0 0 1-7.31 5.94l10.77 15.43Zm-39.46-8.92v8.92h-37.19v-48H448v8.92h-25.21V35h22.3v8.65h-22.3V54.8Zm-59 8.92-.07-28.81-14.14 23.74h-5l-14.08-23.13v28.2h-10.43v-48h9.2l18 29.85 17.7-29.85h9.12l.14 48Zm-76.44.83q-10.29 0-16-5.7t-5.73-16.26v-26.9h11.12v26.49q0 12.9 10.7 12.9 5.22 0 8-3.12c1.83-2.08 2.75-5.35 2.75-9.78V15.69h11v26.9q0 10.56-5.73 16.26t-16.12 5.7Zm-53-39.8h-15.35v-9.06H287v9.06h-15.37v39h-11.12Zm-37.26 39.8a39.31 39.31 0 0 1-11-1.55 25.81 25.81 0 0 1-8.54-4l3.77-8.37a25.48 25.48 0 0 0 7.35 3.63 27.39 27.39 0 0 0 8.5 1.38q4.74 0 7-1.41a4.25 4.25 0 0 0 2.27-3.74 3.6 3.6 0 0 0-1.34-2.85 10.4 10.4 0 0 0-3.43-1.82c-1.4-.45-3.28-1-5.66-1.51a76.27 76.27 0 0 1-9-2.6 14.74 14.74 0 0 1-6-4.19 11.34 11.34 0 0 1-2.5-7.68 13.28 13.28 0 0 1 2.27-7.58 15.09 15.09 0 0 1 6.82-5.39 27.8 27.8 0 0 1 11.15-2 37.56 37.56 0 0 1 9 1.09 26.72 26.72 0 0 1 7.68 3.16l-3.43 8.44a26.8 26.8 0 0 0-13.31-3.77q-4.67 0-6.89 1.51a4.59 4.59 0 0 0-2.23 4 3.89 3.89 0 0 0 2.57 3.7 40.55 40.55 0 0 0 7.86 2.37 76.85 76.85 0 0 1 9 2.6 14.87 14.87 0 0 1 6 4.12 11 11 0 0 1 2.5 7.62 13.12 13.12 0 0 1-2.29 7.51 15.5 15.5 0 0 1-6.9 5.38 28.06 28.06 0 0 1-11.2 1.95Zm-50.43-9.47a15.2 15.2 0 0 0 7.69-2 14 14 0 0 0 5.38-5.45 16 16 0 0 0 2-8 16 16 0 0 0-2-8 14 14 0 0 0-5.38-5.46 16.12 16.12 0 0 0-15.37 0 14 14 0 0 0-5.39 5.46 16.08 16.08 0 0 0-1.95 8 16.1 16.1 0 0 0 1.95 8 14 14 0 0 0 5.39 5.45 15.19 15.19 0 0 0 7.7 2Zm0 9.47a28 28 0 0 1-13.48-3.23 23.89 23.89 0 0 1-9.4-8.89 24.27 24.27 0 0 1-3.4-12.72A24.3 24.3 0 0 1 149.94 27a24 24 0 0 1 9.4-8.89 29.76 29.76 0 0 1 26.93 0 24.3 24.3 0 0 1 9.4 8.89 24 24 0 0 1 3.43 12.73 24 24 0 0 1-12.83 21.61 27.83 27.83 0 0 1-13.45 3.21ZM118 44.86l-6.45 6.72v12.14h-11v-48h11v22.41l21.27-22.44h12.35l-19.9 21.41 21.07 26.62h-13Z" fill="#1b1918" fill-rule="evenodd"/><path d="M488.18 33.12a7.6 7.6 0 0 0-2.61-6.21Q483 24.75 478 24.75h-9.1v16.74h9.1q5 0 7.61-2.19a7.65 7.65 0 0 0 2.57-6.18Zm.21 30.6-9.27-13.38H468.9v13.38h-11.12v-48h20.79a26.61 26.61 0 0 1 11.08 2.13 15.9 15.9 0 0 1 9.78 15.3 16.33 16.33 0 0 1-2.57 9.23 16.41 16.41 0 0 1-7.31 5.94l10.77 15.43Zm-39.46-8.92v8.92h-37.19v-48H448v8.92h-25.21V35h22.3v8.65h-22.3V54.8Zm-59 8.92-.07-28.81-14.14 23.74h-5l-14.08-23.13v28.2h-10.43v-48h9.2l18 29.85 17.7-29.85h9.12l.14 48Zm-76.44.83q-10.29 0-16-5.7t-5.73-16.26v-26.9h11.12v26.49q0 12.9 10.7 12.9 5.22 0 8-3.12c1.83-2.08 2.75-5.35 2.75-9.78V15.69h11v26.9q0 10.56-5.73 16.26t-16.12 5.7Zm-53-39.8h-15.35v-9.06H287v9.06h-15.37v39h-11.12Zm-37.26 39.8a39.31 39.31 0 0 1-11-1.55 25.81 25.81 0 0 1-8.54-4l3.77-8.37a25.48 25.48 0 0 0 7.35 3.63 27.39 27.39 0 0 0 8.5 1.38q4.74 0 7-1.41a4.25 4.25 0 0 0 2.27-3.74 3.6 3.6 0 0 0-1.34-2.85 10.4 10.4 0 0 0-3.43-1.82c-1.4-.45-3.28-1-5.66-1.51a76.27 76.27 0 0 1-9-2.6 14.74 14.74 0 0 1-6-4.19 11.34 11.34 0 0 1-2.5-7.68 13.28 13.28 0 0 1 2.27-7.58 15.09 15.09 0 0 1 6.82-5.39 27.8 27.8 0 0 1 11.15-2 37.56 37.56 0 0 1 9 1.09 26.72 26.72 0 0 1 7.68 3.16l-3.43 8.44a26.8 26.8 0 0 0-13.31-3.77q-4.67 0-6.89 1.51a4.59 4.59 0 0 0-2.23 4 3.89 3.89 0 0 0 2.57 3.7 40.55 40.55 0 0 0 7.86 2.37 76.85 76.85 0 0 1 9 2.6 14.87 14.87 0 0 1 6 4.12 11 11 0 0 1 2.5 7.62 13.12 13.12 0 0 1-2.29 7.51 15.5 15.5 0 0 1-6.9 5.38 28.06 28.06 0 0 1-11.2 1.95Zm-50.43-9.47a15.2 15.2 0 0 0 7.69-2 14 14 0 0 0 5.38-5.45 16 16 0 0 0 2-8 16 16 0 0 0-2-8 14 14 0 0 0-5.38-5.46 16.12 16.12 0 0 0-15.37 0 14 14 0 0 0-5.39 5.46 16.08 16.08 0 0 0-1.95 8 16.1 16.1 0 0 0 1.95 8 14 14 0 0 0 5.39 5.45 15.19 15.19 0 0 0 7.7 2Zm0 9.47a28 28 0 0 1-13.48-3.23 23.89 23.89 0 0 1-9.4-8.89 24.27 24.27 0 0 1-3.4-12.72A24.3 24.3 0 0 1 149.94 27a24 24 0 0 1 9.4-8.89 29.76 29.76 0 0 1 26.93 0 24.3 24.3 0 0 1 9.4 8.89 24 24 0 0 1 3.43 12.73 24 24 0 0 1-12.83 21.61 27.83 27.83 0 0 1-13.45 3.21ZM118 44.86l-6.45 6.72v12.14h-11v-48h11v22.41l21.27-22.44h12.35l-19.9 21.41 21.07 26.62h-13Z" fill="none" stroke="#1b1918" stroke-width=".22"/><path d="M39.09 90.52a17 17 0 0 0-.24-2.2c-8.39 3.1-17.24 14.37-15.42 15.8 1.98 1.25 6.13-2.92 15.66-13.6Zm96.78-20.14A29.44 29.44 0 0 1 145.8 69c2.41-.06 7.08-.45 7.24.71-.13 2-10.72 2-15.54 5.64-1.12.74-2.14 1.8-3.2 1.8-1.55 0-3.55-2.73-2.83-4.15.53-1.07 3.21-2 4.4-2.62Zm202.31 34.8c-9.18 12.15 14 4.59 22.22 1.49 21.29-8 24.82-6.14 28-4.69 2.34 1.07 2 5 5.82 7 4.77 2.58 15.27 3.16 35.55 3 54.77-.34 68.09-4.56 74.71-3.48-3.83 6.46-80.38 13.66-110.54 6.52-7.68-1.82-10.38-8.49-13.76-8.18-11.82-.7-28.2 12.09-39.06 12.29-7.11.12-14.2-2-15.79-6.2-2.41-6.35 12.58-15 12.6-16.87-.14-2.32-14-.65-19.78-.45a168.73 168.73 0 0 0-40.05 5.82c-7.56 2-13.61 3.48-18.5 4.73-3 .89-5.65 1.65-7.43 2.2-12.38 3.85-23.12 10.06-29.22 10.74-9 1-11.39-3.56-11.17-7.41.25-4.35 3.68-6.46 3.32-8.65-.27-1.61-4.86-2.77-13.37 1.25-12.71 6-17.06 8-19.52 6.07-4.6-3.69 2.7-14.46 1.74-15.65-1.33-.87-12.76 11.37-16.6 13.68a2.82 2.82 0 0 1-3.31-3.09c.58-2 4-6.68 7.9-13.26 3.36-5.75 3.1-10.2 6.08-11 1.9-.53 4.37.74 4.37 2.76-.31 3-8.23 9.32-7 12.12a48.14 48.14 0 0 0 13.36-11.08c2.83-3.47 9.37-2 5.67 4.31-8.93 15.26-11.43 19.21-4.22 16.26 4-1.63 9.85-5.46 22.27-8.53 6-1.49 10.48-.79 10.89 2.83.7 6.17-7.28 8-6.24 12.73 1 3.51 3.57 3.57 8.62 2.45 12-2.68 19.58-9 42.61-16.25 5.37-1.77 11.11-3.33 17-4.69 2.16-.53 4.41-1.06 6.77-1.59l.1.09c3.15-.64 6.31-1.23 9.45-1.77 14.62-2.49 28.82-2.48 43.58-1.2 2.36.2 4.68.89 5 2.37 1.03 4.64-2.76 4.03-12.07 13.33Zm-245.73 1.3c-.68-5.1 1.81-8.45 5.88-9.16-.1 5.08-1.63 8.55-5.88 9.16Zm78.25-25.39c1.93-1.75.08-4.28-1.29-5.87-1.76-2.06-12.3 6.18-16.36 9.44-7 4-14.6 9.47-21 13.67-8.41 5.51-14.88 6.81-14.36 3.3.69-4.7 9.22-15.31 12.11-18.7a3.07 3.07 0 0 0-1-4.55c-2.9-1.81-6.1 4-7.83 6.16-.65.82-1.3 1.67-2 2.53a123.27 123.27 0 0 1-13.69 2.57 6.48 6.48 0 0 0-1.61.5c-.06-.91-.15-1.84-.26-2.8-.11-1.83.87-5.25 3-6.46 1.46-.48 3.2.74 3.75-2.33a3.36 3.36 0 0 0-3.91-3.65c-4.94.15-6.87 7-8.43 12l-.23.15C94.39 89.5 89 91 84 92.21c.1.66 1.9.81 4.07.76.24 0 .55-.07.94-.14-5.44 3.07-10 7.44-15.15 10.25a17.46 17.46 0 0 1-7.64 2.4c-4.1.21-4.22-4.94-3.07-7.59 13.3-9.12 20.66-14.65 18.66-19-.7-1.55-2-3-6.73-.7-9.59 4.65-14.7 13.08-17.9 19.66-2.4 1.66-9.1 11.48-12 8.43-1.69-1.82-1.72-8.42-1.18-12.28 2.38-17 15.76-27.33 21.21-41.73 1.05-2.76 2.14-6.15-1.25-6.15-2 0-3.37 3.68-3.37 5.71C60.22 57 57 61.2 52 68.46 49.75 71.75 43 80 41.67 82.94c-.33-.2-.67-.4-1-.59-4.31-3.63-6.49 1.44-12.35 7.75-6.89 7.41-14.91 14.9-10.49 18.62 5.4 4.52 15.17-4.72 20.89-13.63v.22c-2.18 9.21 2.23 14.33 4.76 15.57 3.35 1.66 9-.74 12.57-7.27.61-.31 1 2.6 2.58 4 7.81 7.34 20.51-2.77 25.76-7.34 3.42-3 6.86-6.53 10.23-8.8 1.07-.31 2.09-.62 2.88-.91 1-.36 1 .69 1.06 1.65v.29c-4 2-8.41 4.49-9.59 5.54a9.37 9.37 0 0 0-3.09 8.31 5 5 0 0 0 1 2.62 1.82 1.82 0 0 0 .76.72 3.85 3.85 0 0 0 .53.3c8.48 4.69 15-.9 15.68-13.74A68.53 68.53 0 0 0 115.59 92c-3.8 6.12-5.9 12.36-1.41 15.93 4.08 3.25 10.12.81 17-3.79-1.22 2.5-.88 4.74 1.93 6.57 4.32 2.81 10.08-2.31 15.33-5.58q1.44-.9 2.7-1.83c-8.43 29.82-34 33.8-37.21 25.85-3.38-8.41 2.26-9.9 1.4-11.76-1.1-1.15-6.14 2.81-6.72 6.5-.77 4.79.93 7.54 3.69 10.13 7.69 7.24 29.21 8 45.41-34 0-.88 4-7.08 4.32-8.81.85-1.24 1.72-2.57 2.65-4 2.15-3.24 4.09-4.19 5.34-5.92Zm-13.27 5.08c-2.08 2.68-1.84 7.08-4.79 10-6.13 6-12.3 10.4-14.37 8.74-2.36-3.07 7.37-11.07 19.16-18.74Zm-86.32 1.72c-3.57 2.11-6.45 4.77-6.44 4.57 4.53-7.11 7.59-8.8 8.42-8.76 1.24.06 1.61 2.07-1.98 4.19Z" fill="red" fill-rule="evenodd"/><path d="M70.31 7.44a5 5 0 0 0-1.83-.79 18.85 18.85 0 0 0-5.27-.9 30.38 30.38 0 0 0-8 2 130.27 130.27 0 0 0-21.48 10.12C24.19 23.27 15 29.25 5.84 35.26c-.69.45-1.39.87-2.09 1.3a10.06 10.06 0 0 1 1.93-2.79 104.12 104.12 0 0 1 11.18-10c5.85-4.73 12-9.14 17.78-13.93a31.42 31.42 0 0 0 4.41-4.06c.36-.42.93-.88.61-1.5s-1.11-.5-1.73-.39a16.57 16.57 0 0 0-1.84.48 100.93 100.93 0 0 0-12.36 5.34c-5.55 2.68-11 5.6-16.59 8.17-.43.2-1.08.73-1.36.34s.28-1 .64-1.38a41.78 41.78 0 0 1 6.87-5.66c4.54-3.32 9.18-6.48 13.55-10A2.9 2.9 0 0 0 28 0a6.66 6.66 0 0 0-3 .88c-1.84 1-3.64 2.07-5.41 3.19A61.21 61.21 0 0 0 6 15a13.62 13.62 0 0 0-3.3 5.6 1.54 1.54 0 0 0 .24 1.62c.51.47 1 0 1.43-.18 3.56-1.63 7-3.52 10.43-5.39C20 13.83 25.25 11 30.5 8.11a34.25 34.25 0 0 1 7.72-3.45c.28-.07.68-.4.88 0s-.19.59-.44.82a52.12 52.12 0 0 1-4.23 3.3C30 12 25.5 15.12 21.07 18.33A141.45 141.45 0 0 0 7.49 29.17a31.88 31.88 0 0 0-6.36 7.44A7.26 7.26 0 0 0 0 40.16v.34c.06.86.25 1 1.08.77a23.83 23.83 0 0 0 4.11-2c8.61-4.74 17-9.88 25.75-14.4A92.35 92.35 0 0 1 44 19.11a1.33 1.33 0 0 1 1.09-.11l-.55.47c-2.11 1.54-4.23 3.07-6.32 4.64-8.09 6.06-16 12.34-22.81 19.88A35.34 35.34 0 0 0 9 53.22a10.38 10.38 0 0 0-1 6.46 2.2 2.2 0 0 0 1.6 1.81 8.53 8.53 0 0 0 4.67.16c4.26-.94 8-3.12 11.57-5.43a195.89 195.89 0 0 0 15.79-11.71 34.21 34.21 0 0 1 3.76-2.71c-.38.62-.61 1-.85 1.39-1.69 2.63-3.64 5.1-5 8a10.12 10.12 0 0 0-.23 7.32c1.2 3.81 7.69-.51 9.19-1.69.87-.62 12.54-10.25 12.12-5.31-.24 4.44-9.69 19.62-8.81 19.62.57-1.54 7.87-11.33 9.23-12.92C63.26 55.6 66 52 66.24 48.5c.1-1.23-.29-2.85-1.52-3-4.18-.4-11.84 3.28-15.31 5.47a19.73 19.73 0 0 1-4.06 2.21c-.22.07-.49.24-.68 0s0-.47.06-.68a9.91 9.91 0 0 1 .58-1.23c2.27-3.76 5.64-6.5 8.82-9.39 3.46-3.14 7.13-6 10.37-9.43a16.8 16.8 0 0 0 2.5-3.28c.92-1.64.6-3.15-.86-4a9.82 9.82 0 0 0-6.65-1.33 21.41 21.41 0 0 0-8.72 3.74c-2.42 1.63-4.77 3.36-7.18 5a11.55 11.55 0 0 1-3.09 1.7 1.12 1.12 0 0 1 .55-.71c1.52-1.21 3-2.44 4.58-3.59 5-3.72 10.26-7.06 15.18-10.88a42.43 42.43 0 0 0 9.78-10 1 1 0 0 0-.28-1.66Z" fill="red" fill-rule="evenodd"/></g></g></svg>