<svg width="124" height="124" fill="none" xmlns="http://www.w3.org/2000/svg"><path d="M123.469 11.48c-2.467-2.98-10.107-1.64-13.408-1.447-4.861.287-9.423 1.856-13.966 3.43-13.086 4.54-25.348 10.873-37.363 17.686-16.616 9.42-32.616 19.84-48.572 30.322-1.195.787-2.424 1.514-3.64 2.27.844-1.91 2.047-3.448 3.37-4.876 5.945-6.423 12.685-11.967 19.468-17.455 10.188-8.25 20.817-15.947 30.954-24.278 2.698-2.215 5.434-4.39 7.683-7.086.62-.738 1.614-1.544 1.057-2.612-.634-1.214-1.93-.879-3.005-.682-1.089.197-2.164.503-3.218.841-7.469 2.414-14.46 5.947-21.509 9.343-9.666 4.66-19.122 9.76-28.89 14.235-.754.35-1.88 1.276-2.364.596-.51-.707.489-1.698 1.117-2.41 3.47-3.919 7.791-6.813 11.962-9.875C31.037 13.7 39.122 8.185 46.733 2.02c.654-.536 1.482-.943 1.938-2.019-1.972.115-3.57.695-5.108 1.53-3.203 1.745-6.335 3.62-9.416 5.565-8.656 5.468-16.971 11.366-23.793 19.102-2.532 2.864-4.763 5.969-5.74 9.767-.243.977-.423 2.05.43 2.835.876.806 1.716.029 2.474-.321 6.2-2.844 12.174-6.14 18.167-9.395 9.154-4.965 18.276-9.995 27.427-14.946 4.33-2.338 8.608-4.8 13.434-6.004.493-.124 1.177-.703 1.534.06.278.597-.33 1.03-.763 1.424-2.334 2.075-4.826 3.949-7.37 5.761-7.746 5.523-15.545 10.986-23.252 16.577-8.167 5.935-16.266 11.971-23.657 18.892-4.179 3.91-8.24 7.936-11.073 12.983C.794 65.914-.148 68.104.019 70.596c.1 1.51.437 1.813 1.88 1.347 2.53-.815 4.836-2.145 7.144-3.413 15.005-8.258 29.617-17.233 44.844-25.097 7.385-3.807 14.826-7.486 22.733-10.118.533-.175 1.091-.56 1.879-.223-.41.347-.673.6-.96.81-3.666 2.697-7.356 5.36-10.997 8.086-14.093 10.574-27.873 21.526-39.72 34.67-4.406 4.886-8.444 10.052-11.141 16.128-1.598 3.588-2.515 7.279-1.705 11.264.33 1.628 1.186 2.619 2.736 3.153 2.694.922 5.413.867 8.137.272 7.412-1.639 13.836-5.447 20.136-9.464 9.643-6.153 18.53-13.342 27.502-20.417 1.99-1.57 3.96-3.19 6.547-4.713-.66 1.069-1.066 1.75-1.494 2.41-2.938 4.585-6.325 8.898-8.625 13.87-1.837 3.976-3.306 8.056-1.95 12.554.631 2.098 2.267 2.89 4.164 1.871a328.875 328.875 0 0 0 8.303-4.648c5.589-3.226 10.959-6.808 16.77-9.651 1.383-.678 2.787-1.296 4.339-1.467 1.618-.177 2.236.497 2.097 2.11-.119 1.294-.612 2.455-1.185 3.597-1.885 3.79-3.82 7.556-5.658 11.366-2.925 6.086-4.98 12.464-6.218 19.107h.63c.334-.896.642-1.797.984-2.685 3.187-8.194 8.103-15.31 13.751-21.958 3.867-4.545 6.993-9.44 7.469-15.61.167-2.154-.197-2.667-2.343-2.87-2.805-.266-5.584.01-8.342.614-5.806 1.272-10.764 4.3-15.69 7.41-2.279 1.435-4.505 2.984-7.084 3.859-.372.124-.847.43-1.185.02-.313-.374-.068-.811.102-1.196.326-.719.617-1.468 1.024-2.139 3.949-6.552 9.816-11.319 15.356-16.362 6.017-5.475 12.423-10.527 18.046-16.44 1.674-1.77 3.234-3.643 4.429-5.784 1.596-2.86 1.049-5.5-1.499-7.036-3.58-2.147-7.468-2.923-11.584-2.306-5.615.84-10.547 3.392-15.182 6.516-4.2 2.84-8.3 5.846-12.495 8.71-1.648 1.131-3.302 2.328-5.384 2.97.15-.715.596-.954.951-1.238 2.652-2.105 5.273-4.254 7.98-6.273 8.7-6.479 17.864-12.296 26.43-18.947 6.462-5.008 12.478-10.458 17.021-17.374.863-1.312 1.561-3.593.507-4.4Z" fill="#F4F4F4"/></svg>