<svg width="176" height="166" fill="none" xmlns="http://www.w3.org/2000/svg"><g filter="url(#a)"><path d="M76.976 9.125c4.65-8.909 17.399-8.909 22.048 0 3.361 6.441 11.504 8.641 17.651 4.769l1.634-1.03c8.136-5.125 18.638 1.211 17.897 10.799-.55 7.107 5.331 13.048 12.443 12.573l2.092-.14c9.464-.633 15.366 10.067 9.781 17.735-4.175 5.732-1.967 13.88 4.496 16.797 8.89 4.012 8.89 16.732 0 20.744-6.463 2.917-8.671 11.065-4.496 16.797 5.585 7.668-.317 18.368-9.781 17.735l-2.092-.14c-7.112-.475-12.993 5.466-12.443 12.573.741 9.588-9.761 15.924-17.897 10.799l-1.634-1.03c-6.147-3.872-14.29-1.672-17.651 4.769-4.65 8.909-17.399 8.909-22.048 0-3.36-6.441-11.504-8.641-17.651-4.769l-1.634 1.03c-8.137 5.125-18.638-1.211-17.897-10.799.55-7.107-5.33-13.048-12.443-12.573l-2.092.14c-9.464.633-15.366-10.067-9.782-17.735 4.176-5.732 1.968-13.88-4.495-16.797-8.89-4.012-8.89-16.732 0-20.744 6.463-2.917 8.67-11.065 4.495-16.797-5.584-7.668.318-18.368 9.782-17.735l2.092.14c7.112.475 12.993-5.466 12.443-12.573-.741-9.588 9.76-15.924 17.897-10.799l1.634 1.03c6.147 3.872 14.29 1.672 17.651-4.769Z" fill="#AEA1BE"/></g><defs><filter id="a" x=".814" y=".943" width="174.371" height="164.113" filterUnits="userSpaceOnUse" color-interpolation-filters="sRGB"><feFlood flood-opacity="0" result="BackgroundImageFix"/><feColorMatrix in="SourceAlpha" values="0 0 0 0 0 0 0 0 0 0 0 0 0 0 0 0 0 0 127 0" result="hardAlpha"/><feOffset dy="2"/><feGaussianBlur stdDeviation="1.75"/><feComposite in2="hardAlpha" operator="out"/><feColorMatrix values="0 0 0 0 0 0 0 0 0 0 0 0 0 0 0 0 0 0 0.25 0"/><feBlend in2="BackgroundImageFix" result="effect1_dropShadow_865_93"/><feBlend in="SourceGraphic" in2="effect1_dropShadow_865_93" result="shape"/></filter></defs></svg>