
<svg width="25" height="25" viewBox="0 0 19 15" xmlns="http://www.w3.org/2000/svg">
<path  d="M8.34623 1.34526C8.48668 1.20463 8.56557 1.01401 8.56557 0.815258C8.56557 0.616508 8.48668 0.425882 8.34623 0.285257C8.20561 0.144807 8.01499 0.065918 7.81623 0.065918C7.61748 0.065918 7.42686 0.144807 7.28623 0.285257L1.03623 6.53526C0.895784 6.67588 0.816895 6.86651 0.816895 7.06526C0.816895 7.26401 0.895784 7.45463 1.03623 7.59526L7.28623 13.8453C7.37798 13.9437 7.49456 14.0157 7.62372 14.0535C7.75289 14.0913 7.88986 14.0937 8.02024 14.0603C8.15085 14.0272 8.27013 13.9596 8.36551 13.8644C8.4609 13.7693 8.52886 13.6502 8.56223 13.5197C8.59561 13.3891 8.59316 13.252 8.55514 13.1228C8.51713 12.9935 8.44496 12.8769 8.34623 12.7853L3.37623 7.81526H17.8162C18.0151 7.81526 18.2059 7.73624 18.3466 7.59559C18.4872 7.45494 18.5662 7.26417 18.5662 7.06526C18.5662 6.86635 18.4872 6.67558 18.3466 6.53493C18.2059 6.39428 18.0151 6.31526 17.8162 6.31526H3.37623L8.34623 1.34526Z" />
</svg>
