<svg width="19" height="15" viewBox="0 0 19 15"  xmlns="http://www.w3.org/2000/svg">
<path d="M10.649 13.7937C10.51 13.6517 10.433 13.4603 10.4351 13.2615C10.4371 13.0628 10.518 12.873 10.6598 12.7338L15.6806 7.81504L1.24133 7.6669C1.04243 7.66486 0.852481 7.58389 0.71328 7.4418C0.574079 7.29971 0.497022 7.10815 0.499063 6.90924C0.501104 6.71034 0.582074 6.5204 0.724161 6.3812C0.866249 6.24199 1.05782 6.16494 1.25672 6.16698L15.696 6.31512L10.7772 1.29439C10.6794 1.20171 10.6085 1.08438 10.5718 0.954744C10.5351 0.825112 10.534 0.687985 10.5688 0.55781C10.6035 0.427635 10.6726 0.309232 10.769 0.215076C10.8654 0.12092 10.9853 0.0544966 11.1163 0.0228042C11.247 -0.00927315 11.3839 -0.00553674 11.5127 0.0336204C11.6415 0.0727775 11.7573 0.145908 11.848 0.245323L18.0336 6.55911C18.1726 6.70117 18.2495 6.8926 18.2475 7.09134C18.2454 7.29008 18.1646 7.47988 18.0227 7.61906L11.7089 13.8046C11.5669 13.9436 11.3754 14.0205 11.1767 14.0185C10.978 14.0165 10.7881 13.9356 10.649 13.7937Z"/>
</svg>