
<svg width="21" height="24" viewBox="0 0 21 24" xmlns="http://www.w3.org/2000/svg">
<path d="M3.924 24C3.252 24 2.68 23.7606 2.208 23.2817C1.736 22.8028 1.5 22.223 1.5 21.5422V2.69372H0V1.17185H6V0H15V1.17185H21V2.69372H19.5V21.5422C19.5 22.2422 19.269 22.8271 18.807 23.2969C18.345 23.7666 17.768 24.001 17.076 24H3.924ZM18 2.69372H3V21.5422C3 21.8151 3.0865 22.0393 3.2595 22.2148C3.4325 22.3904 3.654 22.4781 3.924 22.4781H17.0775C17.3075 22.4781 17.519 22.3807 17.712 22.1859C17.905 21.9911 18.001 21.776 18 21.5406V2.69372ZM7.212 19.4344H8.712V5.73748H7.212V19.4344ZM12.288 19.4344H13.788V5.73748H12.288V19.4344Z"/>
</svg>