<svg width="17.000000" height="17.000000" viewBox="0 0 17 17" fill="none" xmlns="http://www.w3.org/2000/svg" xmlns:xlink="http://www.w3.org/1999/xlink">
	<desc>
			Created with Pixso.
	</desc>
	<defs/>
	<path id="Vector" d="M11.9 8L0 8M7.81 4.52C7.81 4.92 8.3 5.6 8.72 6.11C9.09 6.56 9.52 6.95 10.02 7.27C10.56 7.61 11.31 8 11.89 8C11.31 8 10.56 8.38 10.02 8.72C9.52 9.04 9.09 9.43 8.72 9.88C8.3 10.39 7.81 11.07 7.81 11.47M5.58 4.52L5.58 1.39L5.82 1.39C9.11 1.39 12.39 0.94 15.55 0.07L15.81 0L16 0L16 16L15.81 16L15.55 15.92C12.39 15.05 9.11 14.6 5.82 14.6L5.58 14.6L5.58 11.47" stroke="#453866" stroke-opacity="1.000000" stroke-width="1.000000"/>
</svg>
