<svg width="17" height="15" viewBox="0 0 17 15" xmlns="http://www.w3.org/2000/svg">
<path d="M3.34564 8.71501V13.8713H7.09564V10.1213C7.09564 9.87258 7.19442 9.63414 7.37021 9.45833C7.54602 9.28251 7.78452 9.18376 8.03315 9.18376H8.97065C9.21927 9.18376 9.45771 9.28251 9.63358 9.45833C9.8094 9.63414 9.90815 9.87258 9.90815 10.1213V13.8713H13.6581V8.71501M1.47064 7.77751L7.83877 1.40938C7.92584 1.32226 8.02921 1.25315 8.14296 1.206C8.25677 1.15885 8.37871 1.13458 8.5019 1.13458C8.62509 1.13458 8.74702 1.15885 8.86077 1.206C8.97459 1.25315 9.07796 1.32226 9.16502 1.40938L15.5331 7.77751"/>
</svg>
