<svg width="16.000000" height="17.000000" viewBox="0 0 16 17" fill="none" xmlns="http://www.w3.org/2000/svg" xmlns:xlink="http://www.w3.org/1999/xlink">
	<desc>
			Created with Pixso.
	</desc>
	<defs>
		<clipPath id="clip590_2429">
			<rect id="clarity:heart-line" width="15.999999" height="16.999998" fill="white" fill-opacity="0"/>
		</clipPath>
	</defs>
	<g clip-path="url(#clip590_2429)">
		<path id="Vector" d="M8 17C7.88 16.99 7.78 16.95 7.69 16.88C4.91 14.48 2.99 12.42 1.65 10.39C-0.06 7.79 -0.45 5.39 0.49 3.25C1.16 1.73 3.09 0.48 5.34 1.21C6.41 1.55 7.35 2.29 8 3.3C8.64 2.29 9.58 1.55 10.65 1.21C12.9 0.49 14.83 1.73 15.5 3.25C16.44 5.39 16.05 7.79 14.34 10.39C13 12.42 11.08 14.48 8.3 16.88C8.21 16.95 8.11 16.99 8 17ZM4.06 2.11C3.52 2.09 2.99 2.23 2.52 2.51C2.05 2.8 1.66 3.22 1.39 3.74C0.62 5.5 0.97 7.46 2.46 9.73C4.05 12 5.91 14.02 8 15.74C10.08 14.02 11.94 12 13.53 9.73C15.03 7.46 15.37 5.5 14.6 3.74C14.1 2.63 12.6 1.75 10.93 2.27C10.39 2.45 9.89 2.75 9.47 3.15C9.04 3.55 8.7 4.04 8.45 4.6C8.42 4.7 8.35 4.79 8.27 4.85C8.19 4.91 8.09 4.94 7.99 4.94C7.89 4.94 7.8 4.91 7.71 4.85C7.63 4.79 7.57 4.7 7.53 4.6C7.29 4.04 6.94 3.54 6.52 3.14C6.09 2.74 5.6 2.44 5.06 2.27C4.73 2.17 4.4 2.11 4.06 2.11Z" fill="#453866" fill-opacity="1.000000" fill-rule="nonzero"/>
	</g>
</svg>
