
<svg width="11" height="11" viewBox="0 0 11 11" xmlns="http://www.w3.org/2000/svg">
<path d="M5.5 9.90917C5.43249 9.90896 5.36695 9.88639 5.31361 9.845C3.61472 8.525 2.44444 7.38833 1.62556 6.26694C0.580556 4.83389 0.342222 3.51083 0.916667 2.33444C1.32611 1.49417 2.5025 0.806667 3.8775 1.20694C4.53308 1.39631 5.10506 1.80241 5.5 2.35889C5.89493 1.80241 6.46692 1.39631 7.1225 1.20694C8.49444 0.812778 9.67389 1.49417 10.0833 2.33444C10.6578 3.51083 10.4194 4.83389 9.37444 6.26694C8.55555 7.38833 7.38528 8.525 5.68639 9.845C5.63305 9.88639 5.56751 9.90896 5.5 9.90917ZM3.09528 1.705C2.7681 1.69227 2.44364 1.76888 2.15672 1.9266C1.86979 2.08433 1.63124 2.31722 1.46667 2.60028C0.993056 3.57194 1.20694 4.65361 2.12056 5.90333C3.09148 7.15568 4.2284 8.26999 5.5 9.21556C6.77139 8.27093 7.90831 7.15765 8.87944 5.90639C9.79611 4.65361 10.0069 3.57194 9.53333 2.60333C9.22778 1.99222 8.31111 1.50639 7.29056 1.79361C6.96332 1.89032 6.65995 2.05447 6.39998 2.2755C6.14002 2.49652 5.9292 2.76953 5.78111 3.07694C5.75809 3.13299 5.71893 3.18092 5.6686 3.21465C5.61828 3.24839 5.55906 3.2664 5.49847 3.2664C5.43789 3.2664 5.37867 3.24839 5.32834 3.21465C5.27802 3.18092 5.23885 3.13299 5.21583 3.07694C5.06885 2.76876 4.8584 2.49511 4.59827 2.27395C4.33814 2.05279 4.03421 1.8891 3.70639 1.79361C3.50777 1.73592 3.3021 1.7061 3.09528 1.705Z" />
</svg>
