<svg width="20.000000" height="22.000000" viewBox="0 0 20 22" fill="none" xmlns="http://www.w3.org/2000/svg" xmlns:xlink="http://www.w3.org/1999/xlink">
	<desc>
			Created with Pixso.
	</desc>
	<defs>
		<clipPath id="clip438_264">
			<rect id="Location-Pin--Streamline-Platinum 1" width="20.000000" height="22.000000" fill="white" fill-opacity="0"/>
		</clipPath>
	</defs>
	<rect id="Location-Pin--Streamline-Platinum 1" width="20.000000" height="22.000000" fill="#FFFFFF" fill-opacity="0"/>
	<g clip-path="url(#clip438_264)">
		<path id="Vector" d="M2.11 9.04C2.11 11.32 2.96 13.5 4.47 15.11C7.08 17.9 8.89 18.76 10.16 20.79C11.43 18.76 13.29 17.85 15.85 15.11C17.32 13.5 18.15 11.32 18.13 9.06C18.12 6.8 17.27 4.64 15.78 3.04C14.28 1.44 12.25 0.54 10.14 0.52C8.02 0.51 5.98 1.39 4.47 2.97L4.47 2.96C2.96 4.58 2.11 6.76 2.11 9.04Z" stroke="#FBFBFB" stroke-opacity="1.000000" stroke-width="1.000000"/>
		<path id="Vector" d="M12.25 11.27C11.7 11.87 10.94 12.2 10.16 12.2C9.37 12.2 8.62 11.87 8.06 11.27C7.51 10.68 7.19 9.88 7.19 9.04C7.19 8.2 7.51 7.39 8.06 6.8C8.62 6.21 9.37 5.87 10.16 5.87C10.94 5.87 11.7 6.21 12.25 6.8C12.81 7.39 13.12 8.2 13.12 9.04C13.12 9.88 12.81 10.68 12.25 11.27Z" stroke="#FBFBFB" stroke-opacity="1.000000" stroke-width="1.000000"/>
	</g>
</svg>
