<svg width="20.000000" height="19.000000" viewBox="0 0 20 19" fill="none" xmlns="http://www.w3.org/2000/svg" xmlns:xlink="http://www.w3.org/1999/xlink">
	<desc>
			Created with Pixso.
	</desc>
	<defs/>
	<path id="Vector" d="M17.43 10C17.22 10 16.99 9.92 16.77 9.87C16.32 9.78 15.88 9.65 15.46 9.48C14.99 9.32 14.48 9.33 14.02 9.51C13.57 9.69 13.19 10.04 12.98 10.48L12.76 10.93C11.78 10.39 10.89 9.72 10.1 8.93C9.31 8.14 8.64 7.25 8.1 6.27L8.52 6C8.96 5.78 9.31 5.4 9.49 4.95C9.68 4.49 9.68 3.98 9.52 3.52C9.36 3.09 9.23 2.65 9.12 2.2C9.08 1.98 9.04 1.75 9.01 1.52C8.88 0.82 8.51 0.18 7.96 -0.27C7.41 -0.73 6.72 -0.98 6.01 -0.96L3.01 -0.96C2.57 -0.97 2.15 -0.88 1.75 -0.7C1.36 -0.53 1.01 -0.27 0.72 0.05C0.44 0.38 0.23 0.76 0.1 1.17C-0.02 1.58 -0.05 2.02 0.01 2.44C0.54 6.63 2.45 10.53 5.44 13.51C8.43 16.49 12.33 18.39 16.53 18.9L16.91 18.9C17.64 18.91 18.35 18.64 18.91 18.14C19.22 17.86 19.47 17.52 19.65 17.13C19.82 16.74 19.91 16.32 19.91 15.89L19.91 12.89C19.89 12.2 19.64 11.53 19.19 11C18.74 10.47 18.12 10.12 17.43 10ZM17.93 16C17.93 16.14 17.9 16.28 17.85 16.41C17.79 16.54 17.7 16.65 17.6 16.75C17.48 16.84 17.35 16.91 17.21 16.96C17.07 17 16.92 17.01 16.78 17C13.03 16.51 9.55 14.8 6.89 12.13C4.22 9.45 2.53 5.96 2.07 2.21C2.05 2.07 2.06 1.92 2.11 1.78C2.15 1.64 2.22 1.51 2.32 1.39C2.41 1.29 2.52 1.2 2.65 1.14C2.78 1.09 2.92 1.06 3.07 1.06L6.07 1.06C6.3 1.05 6.52 1.13 6.71 1.27C6.89 1.41 7.02 1.62 7.07 1.85C7.1 2.12 7.16 2.39 7.22 2.65C7.33 3.18 7.48 3.7 7.68 4.2L6.28 4.85C6.16 4.91 6.05 4.99 5.96 5.08C5.87 5.18 5.8 5.29 5.75 5.42C5.71 5.54 5.69 5.67 5.69 5.8C5.7 5.94 5.73 6.07 5.79 6.18C7.22 9.27 9.7 11.75 12.79 13.18C13.03 13.29 13.3 13.29 13.55 13.18C13.67 13.14 13.78 13.07 13.88 12.98C13.98 12.89 14.06 12.79 14.12 12.66L14.74 11.27C15.25 11.45 15.78 11.6 16.32 11.73C16.58 11.79 16.85 11.83 17.12 11.87C17.35 11.92 17.56 12.05 17.7 12.23C17.84 12.42 17.92 12.64 17.91 12.87L17.93 16Z" fill="#9EA5AD" fill-opacity="1.000000" fill-rule="nonzero"/>
</svg>
