<svg width="16.000000" height="20.000000" viewBox="0 0 16 20" fill="none" xmlns="http://www.w3.org/2000/svg" xmlns:xlink="http://www.w3.org/1999/xlink">
	<desc>
			Created with Pixso.
	</desc>
	<defs/>
	<path id="Vector" d="M8 11C7.69 10.99 7.39 11.08 7.14 11.25C6.89 11.42 6.7 11.67 6.59 11.95C6.48 12.24 6.46 12.55 6.53 12.84C6.6 13.14 6.77 13.4 7 13.6L7 15C7 15.26 7.1 15.51 7.29 15.7C7.48 15.89 7.73 16 8 16C8.26 16 8.51 15.89 8.7 15.7C8.89 15.51 9 15.26 9 15L9 13.6C9.22 13.4 9.39 13.14 9.46 12.84C9.53 12.55 9.51 12.24 9.4 11.95C9.29 11.67 9.1 11.42 8.85 11.25C8.6 11.08 8.3 10.99 8 11ZM13 7L13 5C13 3.67 12.47 2.4 11.53 1.46C10.59 0.52 9.32 0 8 0C6.67 0 5.4 0.52 4.46 1.46C3.52 2.4 3 3.67 3 5L3 7C2.2 7 1.44 7.31 0.87 7.87C0.31 8.44 0 9.2 0 10L0 17C0 17.79 0.31 18.55 0.87 19.12C1.44 19.68 2.2 20 3 20L13 20C13.79 20 14.55 19.68 15.12 19.12C15.68 18.55 16 17.79 16 17L16 10C16 9.2 15.68 8.44 15.12 7.87C14.55 7.31 13.79 7 13 7ZM5 5C5 4.2 5.31 3.44 5.87 2.87C6.44 2.31 7.2 2 8 2C8.79 2 9.55 2.31 10.12 2.87C10.68 3.44 11 4.2 11 5L11 7L5 7L5 5ZM14 17C14 17.26 13.89 17.51 13.7 17.7C13.51 17.89 13.26 18 13 18L3 18C2.73 18 2.48 17.89 2.29 17.7C2.1 17.51 2 17.26 2 17L2 10C2 9.73 2.1 9.48 2.29 9.29C2.48 9.1 2.73 9 3 9L13 9C13.26 9 13.51 9.1 13.7 9.29C13.89 9.48 14 9.73 14 10L14 17Z" fill="#9EA5AD" fill-opacity="1.000000" fill-rule="nonzero"/>
</svg>
