<svg width="98" height="46" viewBox="0 0 98 46" fill="none" xmlns="http://www.w3.org/2000/svg">
<path d="M0.292489 28.8263C0.374592 29.0728 0.436169 29.3194 0.518271 29.5659C0.559322 29.6797 0.600373 29.8125 0.66195 29.9262C0.703001 30.04 0.764578 30.1538 0.805629 30.2676C1.21614 31.1779 1.77033 31.9744 2.36557 32.6572C2.96081 33.3399 3.61763 33.9278 4.25393 34.4209C4.91074 34.914 5.54704 35.3312 6.18333 35.6536C7.43539 36.3174 8.5643 36.6966 9.50847 36.8673C9.73426 36.9053 9.96004 36.9432 10.1858 36.9622C10.3911 36.9811 10.5963 36.9811 10.7811 36.9811C10.9658 36.9811 11.1505 36.9622 11.2942 36.9242C11.4584 36.8863 11.6021 36.8484 11.7458 36.7915C12.3 36.5829 12.6284 36.2036 12.7926 35.6346C12.9568 35.0657 12.8747 34.5916 12.5873 34.1933C12.5257 34.0985 12.4231 34.0037 12.341 33.9088C12.2384 33.814 12.1357 33.7192 12.0126 33.6433C11.8894 33.5485 11.7458 33.4726 11.6021 33.3968C11.4584 33.3209 11.2942 33.2261 11.13 33.1502C10.4527 32.8278 9.59058 32.5054 8.62587 32.0693C8.13326 31.8606 7.62012 31.6141 7.08646 31.3296C6.55279 31.0452 5.9986 30.7038 5.46493 30.3055C4.93127 29.9073 4.41813 29.4332 3.96657 28.8642C3.90499 28.7884 3.86394 28.7125 3.80236 28.6556C3.74079 28.5797 3.69974 28.5039 3.63816 28.428C3.53553 28.2763 3.45343 28.1246 3.3508 27.9539C3.1866 27.6315 3.02239 27.2712 2.91976 26.9109C2.81714 26.5316 2.73503 26.1523 2.71451 25.735C2.69398 25.3368 2.73503 24.9006 2.83766 24.4834C3.04292 23.63 3.51501 22.7765 4.33603 22.0748C5.13653 21.3732 6.26543 20.8232 7.57907 20.5766C8.19484 20.4628 8.85166 20.406 9.529 20.406C9.93951 20.4249 10.35 20.4628 10.74 20.5387C11.7663 20.6904 12.772 20.9559 13.7367 21.2973C14.7014 21.6387 15.6456 22.0559 16.5487 22.511C17.4519 22.9662 18.3139 23.4972 19.1555 24.0282C19.566 24.3127 19.997 24.5782 20.387 24.8816C20.7975 25.1661 21.1875 25.4695 21.5775 25.773L23.938 27.6125C25.5184 28.8453 27.1194 30.059 28.7409 31.2538C31.9635 33.6433 35.2681 35.976 38.7369 38.138C39.599 38.669 40.4816 39.2 41.3642 39.712C42.2468 40.2241 43.1499 40.7172 44.0735 41.2103C45.9003 42.1585 47.7887 43.0498 49.7591 43.8084C51.7296 44.567 53.7616 45.1928 55.8963 45.5911C58.0104 45.9894 60.2272 46.1221 62.4234 45.8756C62.4439 45.8756 62.4645 45.8756 62.485 45.8756C63.8602 45.7239 65.2149 45.4015 66.4875 44.9463C67.0622 44.7946 67.5959 44.6429 68.109 44.4722C69.2174 44.0929 70.2231 43.6757 71.1057 43.2205C71.9883 42.7843 72.7683 42.3292 73.4046 41.9119C74.7182 41.0396 75.5598 40.262 75.9087 39.6172C76.2371 38.9535 76.0729 38.4414 75.2724 37.9862C74.4719 37.5311 73.8562 37.5501 73.2814 37.9673C72.6862 38.3655 72.1525 39.1621 71.311 40.1862C70.9005 40.6982 70.4079 41.2671 69.8126 41.874C69.2174 42.4619 68.4785 43.0878 67.5753 43.6567C67.1443 43.9222 66.6927 44.1877 66.1796 44.4153C64.9686 44.8515 63.6755 45.1549 62.3618 45.2877C62.3413 45.2877 62.3208 45.2877 62.3003 45.2877C60.2066 45.5152 58.072 45.3825 55.9989 45.0032C53.9258 44.6239 51.9348 43.9981 50.0054 43.2584C48.076 42.5188 46.2082 41.6275 44.402 40.6982C43.4988 40.2241 42.5957 39.731 41.7131 39.219C40.8305 38.7069 39.9684 38.1949 39.1064 37.6449C35.6581 35.5019 32.374 33.1882 29.1515 30.7986C27.5505 29.6038 25.9495 28.3901 24.369 27.1764L22.0086 25.3368C21.6186 25.0333 21.2081 24.7299 20.7975 24.4265C20.387 24.123 19.956 23.8386 19.5455 23.5731C18.6834 23.0231 17.8008 22.4921 16.8772 22.018C15.9535 21.5438 14.9888 21.1266 13.9625 20.7663C12.9568 20.406 11.91 20.1404 10.8221 19.9698C10.35 19.8939 9.87793 19.856 9.38532 19.837C8.7285 19.7801 8.05116 19.7611 7.39434 19.818C5.9165 19.9318 4.47971 20.368 3.30975 21.1076C2.11927 21.8473 1.23667 22.8714 0.703001 23.9524C0.436168 24.5023 0.251438 25.0523 0.128285 25.6212C0.025657 26.1902 -0.0153942 26.7402 0.0051314 27.2712C0.0667081 27.8022 0.169336 28.3332 0.292489 28.8263Z" fill="white"/>
<path d="M97.2662 28.8263C97.1841 29.0728 97.1225 29.3194 97.0404 29.5659C96.9994 29.6797 96.9583 29.8125 96.8967 29.9262C96.8557 30.04 96.7941 30.1538 96.753 30.2676C96.3425 31.1779 95.7883 31.9744 95.1931 32.6572C94.5979 33.3399 93.941 33.9278 93.3047 34.4209C92.6479 34.914 92.0116 35.3312 91.3754 35.6536C90.1233 36.3174 88.9944 36.6966 88.0502 36.8673C87.8244 36.9053 87.5986 36.9432 87.3729 36.9622C87.1676 36.9811 86.9623 36.9811 86.7776 36.9811C86.5929 36.9811 86.4081 36.9622 86.2645 36.9242C86.1003 36.8863 85.9566 36.8484 85.8129 36.7915C85.2587 36.5829 84.9303 36.2036 84.7661 35.6346C84.6019 35.0657 84.684 34.5916 84.9714 34.1933C85.0329 34.0985 85.1356 34.0037 85.2177 33.9088C85.3203 33.814 85.4229 33.7192 85.5461 33.6433C85.6692 33.5485 85.8129 33.4726 85.9566 33.3968C86.1003 33.3209 86.2645 33.2261 86.4287 33.1502C87.106 32.8278 87.9681 32.5054 88.9328 32.0693C89.4254 31.8606 89.9386 31.6141 90.4722 31.3296C91.0059 31.0452 91.5601 30.7038 92.0937 30.3055C92.6274 29.9073 93.1405 29.4332 93.5921 28.8642C93.6537 28.7884 93.6947 28.7125 93.7563 28.6556C93.8179 28.5797 93.8589 28.5039 93.9205 28.428C94.0231 28.2763 94.1052 28.1246 94.2079 27.9539C94.3721 27.6315 94.5363 27.2712 94.6389 26.9109C94.7415 26.5316 94.8236 26.1523 94.8442 25.735C94.8647 25.3368 94.8236 24.9006 94.721 24.4834C94.5158 23.63 94.0437 22.7765 93.2226 22.0748C92.4221 21.3732 91.2932 20.8232 89.9796 20.5766C89.3638 20.4628 88.707 20.406 88.0297 20.406C87.6192 20.4249 87.2087 20.4628 86.8187 20.5387C85.7924 20.6904 84.7866 20.9559 83.8219 21.2973C82.8572 21.6387 81.9131 22.0559 81.0099 22.511C80.1068 22.9662 79.2447 23.4972 78.4032 24.0282C77.9927 24.3127 77.5616 24.5782 77.1716 24.8816C76.7611 25.1661 76.3712 25.4695 75.9812 25.773L73.6207 27.6125C72.0403 28.8453 70.4393 30.059 68.8177 31.2538C65.5952 33.6433 62.2906 35.976 58.8218 38.138C57.9597 38.669 57.0771 39.2 56.1945 39.712C55.3119 40.2241 54.4088 40.7172 53.4851 41.2103C51.6584 42.1585 49.77 43.0498 47.7995 43.8084C45.8291 44.567 43.7971 45.1928 41.6624 45.5911C39.5483 45.9894 37.3315 46.1221 35.1353 45.8756C35.1147 45.8756 35.0942 45.8756 35.0737 45.8756C33.6985 45.7239 32.3438 45.4015 31.0712 44.9463C30.4965 44.7946 29.9628 44.6429 29.4497 44.4722C28.3413 44.0929 27.3355 43.6757 26.4529 43.2205C25.5703 42.7843 24.7904 42.3292 24.1541 41.9119C22.8404 41.0396 21.9989 40.262 21.65 39.6172C21.3216 38.9535 21.4858 38.4414 22.2863 37.9862C23.0868 37.5311 23.7025 37.5501 24.2772 37.9673C24.8725 38.3655 25.4061 39.1621 26.2477 40.1862C26.6582 40.6982 27.1508 41.2671 27.7461 41.874C28.3413 42.4619 29.0802 43.0878 29.9833 43.6567C30.4144 43.9222 30.8659 44.1877 31.3791 44.4153C32.5901 44.8515 33.8832 45.1549 35.1968 45.2877C35.2174 45.2877 35.2379 45.2877 35.2584 45.2877C37.352 45.5152 39.4867 45.3825 41.5598 45.0032C43.6329 44.6239 45.6238 43.9981 47.5532 43.2584C49.4826 42.5188 51.3505 41.6275 53.1567 40.6982C54.0598 40.2241 54.963 39.731 55.8456 39.219C56.7282 38.7069 57.5902 38.1949 58.4523 37.6449C61.9006 35.5019 65.1847 33.1882 68.4072 30.7986C70.0082 29.6038 71.6092 28.3901 73.1897 27.1764L75.5501 25.3368C75.9401 25.0333 76.3506 24.7299 76.7611 24.4265C77.1716 24.123 77.6027 23.8386 78.0132 23.5731C78.8753 23.0231 79.7579 22.4921 80.6815 22.018C81.6052 21.5438 82.5699 21.1266 83.5961 20.7663C84.6019 20.406 85.6487 20.1404 86.7366 19.9698C87.2087 19.8939 87.6807 19.856 88.1734 19.837C88.8302 19.7801 89.5075 19.7611 90.1643 19.818C91.6422 19.9318 93.079 20.368 94.2489 21.1076C95.4394 21.8473 96.322 22.8714 96.8557 23.9524C97.1225 24.5023 97.3072 25.0523 97.4304 25.6212C97.533 26.1902 97.5741 26.7402 97.5535 27.2712C97.4714 27.8022 97.3893 28.3332 97.2662 28.8263Z" fill="white"/>
<path d="M76.684 16.3855C76.1504 15.077 75.2678 13.996 74.0978 13.2753C72.9279 12.5357 71.5116 12.1374 69.9311 12.1374C69.5617 12.1374 69.1922 12.1564 68.8022 12.2133C68.597 10.203 67.8786 8.53413 66.8318 7.30142C65.5592 5.80321 63.794 5.00669 61.8646 5.00669C60.8178 5.00669 59.7094 5.25323 58.6215 5.72735C57.7595 3.84984 56.3842 2.42748 54.8038 1.47925C53.1412 0.493083 51.2118 0 49.3029 0C46.7372 0 44.1715 0.853413 42.2216 2.61713C41.2364 3.50847 40.4153 4.60843 39.8406 5.95492C39.8201 6.01182 39.7996 6.04975 39.779 6.10664C38.4038 5.34805 37.0286 4.96876 35.715 4.96876C33.7856 4.96876 32.0204 5.76528 30.7273 7.26349C29.6805 8.4962 28.9621 10.1651 28.7568 12.1754C28.3668 12.1374 27.9974 12.0995 27.6279 12.0995C25.4932 12.0995 23.687 12.8012 22.3734 14.0718C21.7165 14.6977 21.2034 15.4752 20.8545 16.3476C20.5055 17.22 20.3208 18.1872 20.3208 19.2302C20.3208 21.4112 21.1213 23.8387 22.866 26.2661C22.8865 26.3041 22.9275 26.342 22.9686 26.3799C29.2905 31.7849 34.9966 34.6675 39.3891 36.1657C43.7815 37.6829 46.8604 37.8346 47.9277 37.8346C48.1945 37.8346 48.3382 37.8346 48.3382 37.8157C48.5024 37.7967 48.6461 37.7208 48.7487 37.5881C48.8514 37.7208 48.995 37.8157 49.1592 37.8157C49.1798 37.8157 49.3029 37.8346 49.5697 37.8346C50.6371 37.8346 53.7159 37.6829 58.1289 36.1847C62.5214 34.6865 68.248 31.8228 74.5699 26.4179C74.611 26.3799 74.6315 26.342 74.6725 26.3041C76.4172 23.8766 77.2382 21.4491 77.2382 19.2682C77.2177 18.2251 77.033 17.2579 76.684 16.3855ZM59.0936 6.92212C60.0583 6.5049 60.982 6.31525 61.8646 6.31525C63.5271 6.31525 64.9639 6.99798 66.0107 8.21173C66.8728 9.21686 67.4681 10.6202 67.6528 12.384C66.5444 12.6305 65.3744 13.0288 64.1634 13.6356C64.1224 13.6546 64.0813 13.6736 64.0403 13.7115C62.1109 15.3614 60.4278 17.0114 58.9499 18.6423C59.3605 16.2148 59.6068 13.5408 59.6068 10.6013C59.6478 9.25479 59.4425 8.02208 59.0936 6.92212ZM31.5483 8.19276C32.5951 6.97902 34.0524 6.29629 35.6945 6.29629C36.8439 6.29629 38.0754 6.63765 39.3275 7.33935C39.0607 8.32551 38.917 9.4065 38.917 10.5823C38.917 14.1287 39.3275 17.3527 39.9638 20.2354C38.1781 18.0923 36.0434 15.8735 33.4777 13.6925C33.4366 13.6546 33.3956 13.6356 33.3545 13.6167C32.1435 13.0098 30.9736 12.5926 29.8652 12.365C30.091 10.6013 30.6862 9.19789 31.5483 8.19276ZM39.738 34.8761C35.4687 33.4158 29.9268 30.628 23.7486 25.3369C22.1681 23.099 21.4908 20.975 21.5113 19.2113C21.5113 18.3579 21.655 17.5803 21.9423 16.8976C22.3528 15.8545 23.0712 15.0011 24.0359 14.3942C25.0006 13.7874 26.2322 13.427 27.6484 13.427C29.1879 13.427 30.9531 13.8442 32.8825 14.8114C36.1665 17.6372 38.7528 20.5009 40.7848 23.2128C41.6674 26.1144 42.7553 28.5988 43.8636 30.628C45.1978 33.1124 46.5525 34.952 47.4967 36.1088C47.5377 36.2416 47.5788 36.3743 47.5993 36.4692C46.3267 36.4312 43.5558 36.1847 39.738 34.8761ZM49.2208 36.1847L49.2003 36.2037C48.4614 35.3882 46.6141 33.2262 44.7668 29.7936C42.4063 25.3938 40.0869 18.9268 40.0869 10.5634C40.0869 8.98928 40.3743 7.66175 40.8669 6.5049C41.6058 4.77911 42.8168 3.48951 44.3152 2.59817C45.793 1.72579 47.5377 1.27064 49.2824 1.27064C51.6223 1.27064 53.9417 2.06716 55.6453 3.62226C56.5074 4.39982 57.2053 5.34805 57.6979 6.5049C58.1905 7.66175 58.4778 9.00824 58.4778 10.5634C58.4778 19.7043 56.0353 26.1903 53.6133 30.4005C52.4023 32.5055 51.1913 34.0417 50.2881 35.0468C49.8571 35.5778 49.4671 35.9571 49.2208 36.1847ZM73.8105 25.3748C67.6323 30.647 62.0698 33.4348 57.8005 34.8761C54.6396 35.9571 52.197 36.3174 50.7397 36.4312C51.7249 35.3882 53.1617 33.6624 54.578 31.159C56.0353 28.6178 57.5131 25.261 58.4778 21.0698C60.202 19.0216 62.2546 16.8976 64.6971 14.8114C66.606 13.8632 68.3917 13.446 69.9311 13.446C71.84 13.446 73.3794 14.0908 74.4262 15.1149C74.9599 15.6269 75.3704 16.2338 75.6372 16.9355C75.9246 17.6372 76.0683 18.3958 76.0683 19.2492C76.0683 21.0319 75.3909 23.137 73.8105 25.3748Z" fill="white"/>
</svg>
