<svg width="139.000000" height="69.000000" viewBox="0 0 139 69" fill="none" xmlns="http://www.w3.org/2000/svg" xmlns:xlink="http://www.w3.org/1999/xlink">
	<desc>
			Created with Pixso.
	</desc>
	<defs>
		<clipPath id="clip418_201">
			<rect id="logo-flowers" width="139.000000" height="68.723175" fill="white" fill-opacity="0"/>
		</clipPath>
	</defs>
	<rect id="logo-flowers" width="139.000000" height="68.723175" fill="#FFFFFF" fill-opacity="0"/>
	<g clip-path="url(#clip418_201)">
		<path id="Vector" d="" fill="#60318F" fill-opacity="1.000000" fill-rule="nonzero"/>
		<path id="Vector" d="" fill="#60318F" fill-opacity="1.000000" fill-rule="nonzero"/>
		<path id="Vector" d="" fill="#60318F" fill-opacity="1.000000" fill-rule="nonzero"/>
		<path id="Vector" d="" fill="#60318F" fill-opacity="1.000000" fill-rule="nonzero"/>
		<path id="Vector" d="" fill="#60318F" fill-opacity="1.000000" fill-rule="nonzero"/>
		<path id="Vector" d="M1.84 42.77C1.95 43.12 2.04 43.46 2.16 43.81C2.21 43.97 2.27 44.16 2.36 44.32C2.42 44.48 2.5 44.64 2.56 44.8C3.14 46.08 3.91 47.2 4.75 48.16C5.59 49.12 6.51 49.94 7.4 50.64C8.32 51.33 9.22 51.92 10.11 52.37C11.87 53.3 13.45 53.84 14.78 54.08C15.1 54.13 15.41 54.18 15.73 54.21C16.02 54.24 16.31 54.24 16.57 54.24C16.83 54.24 17.08 54.21 17.29 54.16C17.52 54.1 17.72 54.05 17.92 53.97C18.7 53.68 19.16 53.14 19.39 52.34C19.62 51.54 19.51 50.88 19.1 50.32C19.02 50.18 18.87 50.05 18.76 49.92C18.61 49.78 18.47 49.65 18.29 49.54C18.12 49.41 17.92 49.3 17.72 49.2C17.52 49.09 17.29 48.96 17.06 48.85C16.1 48.4 14.89 47.94 13.54 47.33C12.85 47.04 12.13 46.69 11.38 46.29C10.63 45.89 9.85 45.41 9.1 44.85C8.35 44.29 7.63 43.62 7 42.82C6.91 42.72 6.85 42.61 6.77 42.53C6.68 42.42 6.62 42.32 6.54 42.21C6.39 42 6.28 41.78 6.13 41.54C5.9 41.09 5.67 40.58 5.53 40.08C5.38 39.54 5.27 39.01 5.24 38.42C5.21 37.86 5.27 37.25 5.41 36.66C5.7 35.46 6.36 34.26 7.52 33.28C8.64 32.29 10.23 31.52 12.07 31.17C12.93 31.01 13.86 30.93 14.81 30.93C15.38 30.96 15.96 31.01 16.51 31.12C17.95 31.33 19.36 31.7 20.72 32.18C22.07 32.66 23.4 33.25 24.66 33.89C25.93 34.53 27.14 35.28 28.32 36.02C28.9 36.42 29.51 36.8 30.05 37.22C30.63 37.62 31.18 38.05 31.72 38.48L35.04 41.06C37.26 42.8 39.51 44.5 41.78 46.18C46.31 49.54 50.95 52.82 55.82 55.86C57.03 56.61 58.27 57.36 59.51 58.08C60.75 58.8 62.01 59.49 63.31 60.18C65.87 61.52 68.53 62.77 71.29 63.84C74.06 64.9 76.91 65.78 79.91 66.34C82.88 66.9 85.99 67.09 89.07 66.74C89.1 66.74 89.13 66.74 89.16 66.74C91.09 66.53 92.99 66.08 94.78 65.44C95.59 65.22 96.34 65.01 97.06 64.77C98.61 64.24 100.03 63.65 101.26 63.01C102.5 62.4 103.6 61.76 104.49 61.17C106.34 59.94 107.52 58.85 108.01 57.94C108.47 57.01 108.24 56.29 107.11 55.65C105.99 55.01 105.13 55.04 104.32 55.62C103.48 56.18 102.73 57.3 101.55 58.74C100.98 59.46 100.28 60.26 99.45 61.12C98.61 61.94 97.58 62.82 96.31 63.62C95.7 64 95.07 64.37 94.35 64.69C92.65 65.3 90.83 65.73 88.99 65.92C88.96 65.92 88.93 65.92 88.9 65.92C85.96 66.24 82.96 66.05 80.05 65.52C77.14 64.98 74.35 64.1 71.64 63.06C68.93 62.02 66.31 60.77 63.77 59.46C62.5 58.8 61.23 58.1 60 57.38C58.76 56.66 57.55 55.94 56.34 55.17C51.49 52.16 46.88 48.9 42.36 45.54C40.11 43.86 37.86 42.16 35.64 40.45L32.33 37.86C31.78 37.44 31.21 37.01 30.63 36.58C30.05 36.16 29.45 35.76 28.87 35.38C27.66 34.61 26.42 33.86 25.12 33.2C23.83 32.53 22.47 31.94 21.03 31.44C19.62 30.93 18.15 30.56 16.62 30.32C15.96 30.21 15.3 30.16 14.61 30.13C13.68 30.05 12.73 30.02 11.81 30.1C9.74 30.26 7.72 30.88 6.08 31.92C4.4 32.96 3.16 34.4 2.42 35.92C2.04 36.69 1.78 37.46 1.61 38.26C1.46 39.06 1.41 39.84 1.44 40.58C1.52 41.33 1.67 42.08 1.84 42.77Z" fill="#60318F" fill-opacity="1.000000" fill-rule="nonzero"/>
		<path id="Vector" d="" fill="#60318F" fill-opacity="1.000000" fill-rule="nonzero"/>
		<path id="Vector" d="" fill="#60318F" fill-opacity="1.000000" fill-rule="nonzero"/>
		<path id="Vector" d="" fill="#60318F" fill-opacity="1.000000" fill-rule="nonzero"/>
		<path id="Vector" d="" fill="#60318F" fill-opacity="1.000000" fill-rule="nonzero"/>
		<path id="Vector" d="" fill="#60318F" fill-opacity="1.000000" fill-rule="nonzero"/>
		<path id="Vector" d="M138.58 42.77C138.47 43.12 138.38 43.46 138.27 43.81C138.21 43.97 138.15 44.16 138.07 44.32C138.01 44.48 137.92 44.64 137.86 44.8C137.29 46.08 136.51 47.2 135.67 48.16C134.84 49.12 133.92 49.94 133.02 50.64C132.1 51.33 131.21 51.92 130.31 52.37C128.56 53.3 126.97 53.84 125.65 54.08C125.33 54.13 125.01 54.18 124.69 54.21C124.41 54.24 124.12 54.24 123.86 54.24C123.6 54.24 123.34 54.21 123.14 54.16C122.91 54.1 122.71 54.05 122.5 53.97C121.73 53.68 121.27 53.14 121.03 52.34C120.8 51.54 120.92 50.88 121.32 50.32C121.41 50.18 121.55 50.05 121.67 49.92C121.81 49.78 121.96 49.65 122.13 49.54C122.3 49.41 122.5 49.3 122.71 49.2C122.91 49.09 123.14 48.96 123.37 48.85C124.32 48.4 125.53 47.94 126.88 47.33C127.58 47.04 128.3 46.69 129.05 46.29C129.8 45.89 130.57 45.41 131.32 44.85C132.07 44.29 132.79 43.62 133.43 42.82C133.51 42.72 133.57 42.61 133.66 42.53C133.74 42.42 133.8 42.32 133.89 42.21C134.03 42 134.15 41.78 134.29 41.54C134.52 41.09 134.75 40.58 134.9 40.08C135.04 39.54 135.16 39.01 135.18 38.42C135.21 37.86 135.16 37.25 135.01 36.66C134.72 35.46 134.06 34.26 132.91 33.28C131.78 32.29 130.2 31.52 128.35 31.17C127.49 31.01 126.57 30.93 125.62 30.93C125.04 30.96 124.46 31.01 123.92 31.12C122.48 31.33 121.06 31.7 119.71 32.18C118.35 32.66 117.03 33.25 115.76 33.89C114.49 34.53 113.28 35.28 112.1 36.02C111.52 36.42 110.92 36.8 110.37 37.22C109.8 37.62 109.25 38.05 108.7 38.48L105.39 41.06C103.17 42.8 100.92 44.5 98.64 46.18C94.12 49.54 89.48 52.82 84.61 55.86C83.4 56.61 82.16 57.36 80.92 58.08C79.68 58.8 78.41 59.49 77.11 60.18C74.55 61.52 71.9 62.77 69.13 63.84C66.36 64.9 63.51 65.78 60.51 66.34C57.55 66.9 54.43 67.09 51.35 66.74C51.32 66.74 51.29 66.74 51.26 66.74C49.33 66.53 47.43 66.08 45.64 65.44C44.84 65.22 44.09 65.01 43.37 64.77C41.81 64.24 40.4 63.65 39.16 63.01C37.92 62.4 36.83 61.76 35.93 61.17C34.09 59.94 32.91 58.85 32.42 57.94C31.96 57.01 32.19 56.29 33.31 55.65C34.43 55.01 35.3 55.04 36.11 55.62C36.94 56.18 37.69 57.3 38.87 58.74C39.45 59.46 40.14 60.26 40.98 61.12C41.81 61.94 42.85 62.82 44.12 63.62C44.72 64 45.36 64.37 46.08 64.69C47.78 65.3 49.59 65.73 51.44 65.92C51.47 65.92 51.49 65.92 51.52 65.92C54.46 66.24 57.46 66.05 60.37 65.52C63.28 64.98 66.08 64.1 68.79 63.06C71.49 62.02 74.12 60.77 76.65 59.46C77.92 58.8 79.19 58.1 80.43 57.38C81.67 56.66 82.88 55.94 84.09 55.17C88.93 52.16 93.54 48.9 98.07 45.54C100.31 43.86 102.56 42.16 104.78 40.45L108.09 37.86C108.64 37.44 109.22 37.01 109.8 36.58C110.37 36.16 110.98 35.76 111.55 35.38C112.76 34.61 114 33.86 115.3 33.2C116.6 32.53 117.95 31.94 119.39 31.44C120.8 30.93 122.27 30.56 123.8 30.32C124.46 30.21 125.13 30.16 125.82 30.13C126.74 30.05 127.69 30.02 128.61 30.1C130.69 30.26 132.71 30.88 134.35 31.92C136.02 32.96 137.26 34.4 138.01 35.92C138.38 36.69 138.64 37.46 138.82 38.26C138.96 39.06 139.02 39.84 138.99 40.58C138.87 41.33 138.76 42.08 138.58 42.77Z" fill="#60318F" fill-opacity="1.000000" fill-rule="nonzero"/>
		<path id="Vector" d="M109.65 25.28C108.9 23.44 107.66 21.92 106.02 20.9C104.38 19.86 102.39 19.3 100.17 19.3C99.65 19.3 99.13 19.33 98.58 19.41C98.3 16.58 97.29 14.24 95.82 12.5C94.03 10.4 91.55 9.28 88.84 9.28C87.37 9.28 85.82 9.62 84.29 10.29C83.08 7.65 81.15 5.65 78.93 4.32C76.6 2.93 73.89 2.24 71.21 2.24C67.6 2.24 64 3.44 61.26 5.92C59.88 7.17 58.73 8.72 57.92 10.61C57.89 10.69 57.86 10.74 57.83 10.82C55.9 9.76 53.97 9.22 52.13 9.22C49.42 9.22 46.94 10.34 45.13 12.45C43.66 14.18 42.65 16.53 42.36 19.36C41.81 19.3 41.29 19.25 40.77 19.25C37.78 19.25 35.24 20.24 33.4 22.02C32.47 22.9 31.75 24 31.26 25.22C30.77 26.45 30.51 27.81 30.51 29.28C30.51 32.34 31.64 35.76 34.09 39.17C34.12 39.22 34.17 39.28 34.23 39.33C43.11 46.93 51.12 50.98 57.29 53.09C63.45 55.22 67.78 55.44 69.28 55.44C69.65 55.44 69.85 55.44 69.85 55.41C70.08 55.38 70.28 55.28 70.43 55.09C70.57 55.28 70.77 55.41 71 55.41C71.03 55.41 71.21 55.44 71.58 55.44C73.08 55.44 77.4 55.22 83.6 53.12C89.77 51.01 97.81 46.98 106.68 39.38C106.74 39.33 106.77 39.28 106.83 39.22C109.28 35.81 110.43 32.4 110.43 29.33C110.4 27.86 110.14 26.5 109.65 25.28ZM84.95 11.97C86.31 11.38 87.6 11.12 88.84 11.12C91.18 11.12 93.19 12.08 94.66 13.78C95.87 15.2 96.71 17.17 96.97 19.65C95.41 20 93.77 20.56 92.07 21.41C92.01 21.44 91.96 21.46 91.9 21.52C89.19 23.84 86.83 26.16 84.75 28.45C85.33 25.04 85.67 21.28 85.67 17.14C85.73 15.25 85.44 13.52 84.95 11.97ZM46.28 13.76C47.75 12.05 49.79 11.09 52.1 11.09C53.71 11.09 55.44 11.57 57.2 12.56C56.83 13.94 56.62 15.46 56.62 17.12C56.62 22.1 57.2 26.64 58.09 30.69C55.59 27.68 52.59 24.56 48.99 21.49C48.93 21.44 48.87 21.41 48.81 21.38C47.11 20.53 45.47 19.94 43.91 19.62C44.23 17.14 45.07 15.17 46.28 13.76ZM57.78 51.28C51.78 49.22 44 45.3 35.33 37.86C33.11 34.72 32.16 31.73 32.19 29.25C32.19 28.05 32.39 26.96 32.79 26C33.37 24.53 34.38 23.33 35.73 22.48C37.08 21.62 38.81 21.12 40.8 21.12C42.96 21.12 45.44 21.7 48.15 23.06C52.76 27.04 56.39 31.06 59.25 34.88C60.49 38.96 62.01 42.45 63.57 45.3C65.44 48.8 67.34 51.38 68.67 53.01C68.73 53.2 68.79 53.38 68.81 53.52C67.03 53.46 63.14 53.12 57.78 51.28ZM71.09 53.12L71.06 53.14C70.02 52 67.43 48.96 64.84 44.13C61.52 37.94 58.27 28.85 58.27 17.09C58.27 14.88 58.67 13.01 59.36 11.38C60.4 8.96 62.1 7.14 64.2 5.89C66.28 4.66 68.73 4.02 71.18 4.02C74.46 4.02 77.72 5.14 80.11 7.33C81.32 8.42 82.3 9.76 82.99 11.38C83.68 13.01 84.09 14.9 84.09 17.09C84.09 29.94 80.66 39.06 77.26 44.98C75.56 47.94 73.86 50.1 72.59 51.52C71.98 52.26 71.44 52.8 71.09 53.12ZM105.62 37.92C96.94 45.33 89.13 49.25 83.14 51.28C78.7 52.8 75.27 53.3 73.22 53.46C74.61 52 76.62 49.57 78.61 46.05C80.66 42.48 82.73 37.76 84.09 31.86C86.51 28.98 89.39 26 92.82 23.06C95.5 21.73 98.01 21.14 100.17 21.14C102.85 21.14 105.01 22.05 106.48 23.49C107.23 24.21 107.81 25.06 108.18 26.05C108.58 27.04 108.79 28.1 108.79 29.3C108.79 31.81 107.84 34.77 105.62 37.92Z" fill="#60318F" fill-opacity="1.000000" fill-rule="nonzero"/>
	</g>
</svg>
