<svg width="141.000000" height="67.000000" viewBox="0 0 141 67" fill="none" xmlns="http://www.w3.org/2000/svg" xmlns:xlink="http://www.w3.org/1999/xlink">
	<desc>
			Created with Pixso.
	</desc>
	<defs>
		<clipPath id="clip354_79">
			<rect id="logo-flowers" width="141.000000" height="66.996422" transform="translate(0.000000 -0.837891)" fill="white" fill-opacity="0"/>
		</clipPath>
	</defs>
	<rect id="logo-flowers" width="141.000000" height="66.996422" transform="translate(0.000000 -0.837891)" fill="#FFFFFF" fill-opacity="0"/>
	<g clip-path="url(#clip354_79)">
		<path id="Vector" d="" fill="#FBFBFB" fill-opacity="1.000000" fill-rule="nonzero"/>
		<path id="Vector" d="" fill="#FBFBFB" fill-opacity="1.000000" fill-rule="nonzero"/>
		<path id="Vector" d="" fill="#FBFBFB" fill-opacity="1.000000" fill-rule="nonzero"/>
		<path id="Vector" d="" fill="#FBFBFB" fill-opacity="1.000000" fill-rule="nonzero"/>
		<path id="Vector" d="" fill="#FBFBFB" fill-opacity="1.000000" fill-rule="nonzero"/>
		<path id="Vector" d="M1.82 40.86C1.94 41.2 2.02 41.53 2.14 41.87C2.19 42.03 2.25 42.21 2.34 42.37C2.39 42.52 2.48 42.68 2.54 42.83C3.11 44.08 3.88 45.17 4.71 46.11C5.54 47.05 6.45 47.85 7.34 48.53C8.25 49.2 9.14 49.78 10.02 50.22C11.76 51.13 13.33 51.65 14.65 51.88C14.96 51.93 15.28 51.98 15.59 52.01C15.88 52.04 16.16 52.04 16.42 52.04C16.68 52.04 16.93 52.01 17.13 51.96C17.36 51.91 17.56 51.85 17.76 51.78C18.53 51.49 18.99 50.97 19.22 50.19C19.45 49.41 19.33 48.76 18.93 48.22C18.85 48.09 18.71 47.96 18.59 47.83C18.45 47.7 18.31 47.57 18.13 47.46C17.96 47.33 17.76 47.23 17.56 47.12C17.36 47.02 17.13 46.89 16.91 46.79C15.96 46.34 14.76 45.9 13.42 45.3C12.74 45.02 12.02 44.68 11.28 44.29C10.54 43.9 9.76 43.43 9.02 42.89C8.28 42.34 7.56 41.69 6.94 40.91C6.85 40.81 6.79 40.7 6.71 40.62C6.62 40.52 6.56 40.42 6.48 40.31C6.34 40.1 6.22 39.9 6.08 39.66C5.85 39.22 5.62 38.73 5.48 38.23C5.34 37.71 5.22 37.19 5.19 36.62C5.16 36.07 5.22 35.48 5.37 34.9C5.65 33.73 6.31 32.56 7.45 31.6C8.56 30.64 10.14 29.89 11.96 29.55C12.82 29.39 13.73 29.31 14.68 29.31C15.25 29.34 15.82 29.39 16.36 29.5C17.79 29.7 19.19 30.07 20.53 30.54C21.88 31 23.19 31.58 24.45 32.2C25.7 32.82 26.9 33.55 28.07 34.28C28.65 34.67 29.25 35.03 29.79 35.45C30.36 35.84 30.9 36.26 31.45 36.67L34.73 39.19C36.93 40.88 39.16 42.55 41.41 44.19C45.9 47.46 50.5 50.66 55.33 53.62C56.53 54.35 57.75 55.08 58.98 55.78C60.21 56.48 61.47 57.16 62.75 57.83C65.3 59.13 67.92 60.36 70.67 61.4C73.41 62.44 76.24 63.29 79.21 63.84C82.15 64.39 85.23 64.57 88.29 64.23C88.32 64.23 88.35 64.23 88.38 64.23C90.29 64.02 92.18 63.58 93.95 62.96C94.75 62.75 95.49 62.54 96.2 62.31C97.75 61.79 99.15 61.21 100.37 60.59C101.6 59.99 102.69 59.37 103.57 58.8C105.4 57.6 106.57 56.53 107.06 55.65C107.52 54.74 107.29 54.04 106.17 53.41C105.06 52.79 104.2 52.82 103.4 53.39C102.57 53.93 101.83 55.03 100.66 56.43C100.09 57.13 99.4 57.91 98.57 58.74C97.75 59.55 96.72 60.41 95.46 61.19C94.86 61.55 94.23 61.92 93.52 62.23C91.83 62.83 90.03 63.24 88.21 63.42C88.18 63.42 88.15 63.42 88.12 63.42C85.21 63.74 82.24 63.55 79.35 63.03C76.47 62.51 73.69 61.66 71.01 60.64C68.32 59.63 65.72 58.41 63.21 57.13C61.95 56.48 60.7 55.81 59.47 55.1C58.24 54.4 57.04 53.7 55.84 52.95C51.04 50.01 46.47 46.84 41.99 43.56C39.76 41.92 37.53 40.26 35.33 38.6L32.05 36.07C31.5 35.66 30.93 35.24 30.36 34.83C29.79 34.41 29.19 34.02 28.62 33.66C27.42 32.9 26.19 32.17 24.9 31.52C23.62 30.87 22.28 30.3 20.85 29.81C19.45 29.31 17.99 28.95 16.48 28.72C15.82 28.61 15.16 28.56 14.48 28.53C13.56 28.46 12.62 28.43 11.71 28.51C9.65 28.66 7.65 29.26 6.02 30.28C4.37 31.29 3.14 32.69 2.39 34.18C2.02 34.93 1.77 35.68 1.59 36.46C1.45 37.24 1.39 38 1.42 38.73C1.51 39.45 1.65 40.18 1.82 40.86Z" fill="#FBFBFB" fill-opacity="1.000000" fill-rule="nonzero"/>
		<path id="Vector" d="" fill="#FBFBFB" fill-opacity="1.000000" fill-rule="nonzero"/>
		<path id="Vector" d="" fill="#FBFBFB" fill-opacity="1.000000" fill-rule="nonzero"/>
		<path id="Vector" d="" fill="#FBFBFB" fill-opacity="1.000000" fill-rule="nonzero"/>
		<path id="Vector" d="" fill="#FBFBFB" fill-opacity="1.000000" fill-rule="nonzero"/>
		<path id="Vector" d="" fill="#FBFBFB" fill-opacity="1.000000" fill-rule="nonzero"/>
		<path id="Vector" d="M137.37 40.86C137.25 41.2 137.17 41.53 137.05 41.87C137 42.03 136.94 42.21 136.85 42.37C136.8 42.52 136.71 42.68 136.65 42.83C136.08 44.08 135.31 45.17 134.48 46.11C133.65 47.05 132.74 47.85 131.85 48.53C130.94 49.2 130.05 49.78 129.17 50.22C127.43 51.13 125.86 51.65 124.54 51.88C124.23 51.93 123.91 51.98 123.6 52.01C123.31 52.04 123.03 52.04 122.77 52.04C122.51 52.04 122.26 52.01 122.06 51.96C121.83 51.91 121.63 51.85 121.43 51.78C120.66 51.49 120.2 50.97 119.97 50.19C119.74 49.41 119.86 48.76 120.26 48.22C120.34 48.09 120.49 47.96 120.6 47.83C120.74 47.7 120.89 47.57 121.06 47.46C121.23 47.33 121.43 47.23 121.63 47.12C121.83 47.02 122.06 46.89 122.29 46.79C123.23 46.34 124.43 45.9 125.77 45.3C126.46 45.02 127.17 44.68 127.91 44.29C128.66 43.9 129.43 43.43 130.17 42.89C130.91 42.34 131.63 41.69 132.25 40.91C132.34 40.81 132.4 40.7 132.48 40.62C132.57 40.52 132.63 40.42 132.71 40.31C132.85 40.1 132.97 39.9 133.11 39.66C133.34 39.22 133.57 38.73 133.71 38.23C133.85 37.71 133.97 37.19 134 36.62C134.03 36.07 133.97 35.48 133.83 34.9C133.54 33.73 132.88 32.56 131.74 31.6C130.63 30.64 129.06 29.89 127.23 29.55C126.37 29.39 125.46 29.31 124.51 29.31C123.94 29.34 123.37 29.39 122.83 29.5C121.4 29.7 120 30.07 118.66 30.54C117.31 31 116 31.58 114.74 32.2C113.49 32.82 112.29 33.55 111.12 34.28C110.54 34.67 109.94 35.03 109.4 35.45C108.83 35.84 108.29 36.26 107.75 36.67L104.46 39.19C102.26 40.88 100.03 42.55 97.77 44.19C93.29 47.46 88.69 50.66 83.86 53.62C82.66 54.35 81.44 55.08 80.21 55.78C78.98 56.48 77.72 57.16 76.44 57.83C73.89 59.13 71.27 60.36 68.52 61.4C65.78 62.44 62.95 63.29 59.98 63.84C57.04 64.39 53.96 64.57 50.9 64.23C50.87 64.23 50.84 64.23 50.81 64.23C48.9 64.02 47.01 63.58 45.24 62.96C44.44 62.75 43.7 62.54 42.99 62.31C41.44 61.79 40.04 61.21 38.82 60.59C37.59 59.99 36.5 59.37 35.62 58.8C33.79 57.6 32.62 56.53 32.13 55.65C31.67 54.74 31.9 54.04 33.02 53.41C34.13 52.79 34.99 52.82 35.79 53.39C36.62 53.93 37.36 55.03 38.53 56.43C39.1 57.13 39.79 57.91 40.62 58.74C41.44 59.55 42.47 60.41 43.73 61.19C44.33 61.55 44.96 61.92 45.67 62.23C47.36 62.83 49.16 63.24 50.98 63.42C51.01 63.42 51.04 63.42 51.07 63.42C53.98 63.74 56.95 63.55 59.84 63.03C62.73 62.51 65.5 61.66 68.18 60.64C70.87 59.63 73.47 58.41 75.98 57.13C77.24 56.48 78.49 55.81 79.72 55.1C80.95 54.4 82.15 53.7 83.35 52.95C88.15 50.01 92.72 46.84 97.2 43.56C99.43 41.92 101.66 40.26 103.86 38.6L107.14 36.07C107.69 35.66 108.26 35.24 108.83 34.83C109.4 34.41 110 34.02 110.57 33.66C111.77 32.9 113 32.17 114.29 31.52C115.57 30.87 116.91 30.3 118.34 29.81C119.74 29.31 121.2 28.95 122.71 28.72C123.37 28.61 124.03 28.56 124.71 28.53C125.63 28.46 126.57 28.43 127.48 28.51C129.54 28.66 131.54 29.26 133.17 30.28C134.83 31.29 136.05 32.69 136.8 34.18C137.17 34.93 137.42 35.68 137.6 36.46C137.74 37.24 137.8 38 137.77 38.73C137.65 39.45 137.54 40.18 137.37 40.86Z" fill="#FBFBFB" fill-opacity="1.000000" fill-rule="nonzero"/>
		<path id="Vector" d="M108.69 23.8C107.95 22.01 106.72 20.53 105.09 19.54C103.46 18.53 101.49 17.98 99.29 17.98C98.77 17.98 98.26 18.01 97.72 18.08C97.43 15.33 96.43 13.04 94.98 11.35C93.2 9.3 90.75 8.2 88.06 8.2C86.61 8.2 85.06 8.54 83.55 9.19C82.35 6.62 80.44 4.67 78.24 3.37C75.92 2.02 73.24 1.34 70.58 1.34C67.01 1.34 63.44 2.51 60.73 4.93C59.35 6.15 58.21 7.66 57.41 9.5C57.38 9.58 57.35 9.63 57.33 9.71C55.41 8.67 53.5 8.15 51.67 8.15C48.99 8.15 46.53 9.24 44.73 11.3C43.27 12.99 42.27 15.28 41.99 18.03C41.44 17.98 40.93 17.93 40.42 17.93C37.44 17.93 34.93 18.89 33.1 20.63C32.19 21.49 31.47 22.56 30.99 23.75C30.5 24.95 30.25 26.27 30.25 27.7C30.25 30.69 31.36 34.02 33.79 37.35C33.82 37.4 33.87 37.45 33.93 37.5C42.73 44.91 50.67 48.87 56.78 50.92C62.9 53 67.18 53.21 68.67 53.21C69.04 53.21 69.24 53.21 69.24 53.18C69.47 53.15 69.67 53.05 69.81 52.87C69.95 53.05 70.15 53.18 70.38 53.18C70.41 53.18 70.58 53.21 70.95 53.21C72.44 53.21 76.72 53 82.86 50.95C88.98 48.89 96.95 44.97 105.75 37.56C105.8 37.5 105.83 37.45 105.89 37.4C108.32 34.07 109.46 30.74 109.46 27.76C109.43 26.33 109.17 25 108.69 23.8ZM84.21 10.83C85.55 10.26 86.83 10 88.06 10C90.38 10 92.38 10.93 93.83 12.6C95.03 13.98 95.86 15.9 96.12 18.32C94.58 18.66 92.95 19.2 91.26 20.03C91.21 20.06 91.15 20.09 91.09 20.14C88.41 22.4 86.06 24.66 84.01 26.9C84.58 23.57 84.92 19.9 84.92 15.87C84.98 14.03 84.69 12.34 84.21 10.83ZM45.87 12.57C47.33 10.91 49.36 9.97 51.64 9.97C53.24 9.97 54.96 10.44 56.7 11.4C56.33 12.75 56.13 14.24 56.13 15.85C56.13 20.71 56.7 25.13 57.58 29.08C55.1 26.14 52.13 23.1 48.56 20.11C48.5 20.06 48.44 20.03 48.39 20.01C46.7 19.18 45.07 18.6 43.53 18.29C43.84 15.87 44.67 13.95 45.87 12.57ZM57.27 49.15C51.33 47.15 43.61 43.33 35.02 36.07C32.82 33.01 31.87 30.09 31.9 27.68C31.9 26.51 32.1 25.44 32.5 24.51C33.07 23.08 34.07 21.91 35.42 21.07C36.76 20.24 38.47 19.75 40.44 19.75C42.59 19.75 45.04 20.32 47.73 21.65C52.3 25.52 55.9 29.44 58.73 33.16C59.95 37.14 61.47 40.55 63.01 43.33C64.87 46.73 66.75 49.26 68.07 50.84C68.12 51.02 68.18 51.21 68.21 51.34C66.44 51.28 62.58 50.95 57.27 49.15ZM70.47 50.95L70.44 50.97C69.41 49.85 66.84 46.89 64.27 42.18C60.98 36.15 57.75 27.29 57.75 15.82C57.75 13.66 58.15 11.84 58.84 10.26C59.87 7.89 61.55 6.12 63.64 4.9C65.7 3.71 68.12 3.08 70.55 3.08C73.81 3.08 77.04 4.17 79.41 6.31C80.61 7.37 81.58 8.67 82.26 10.26C82.95 11.84 83.35 13.69 83.35 15.82C83.35 28.35 79.95 37.24 76.58 43.02C74.89 45.9 73.21 48.01 71.95 49.39C71.35 50.11 70.81 50.63 70.47 50.95ZM104.69 36.13C96.09 43.35 88.35 47.18 82.41 49.15C78.01 50.63 74.61 51.13 72.58 51.28C73.95 49.85 75.95 47.49 77.92 44.06C79.95 40.57 82.01 35.97 83.35 30.22C85.75 27.42 88.61 24.51 92 21.65C94.66 20.35 97.15 19.77 99.29 19.77C101.95 19.77 104.09 20.66 105.55 22.06C106.29 22.76 106.86 23.6 107.23 24.56C107.63 25.52 107.83 26.56 107.83 27.73C107.83 30.17 106.89 33.06 104.69 36.13Z" fill="#FBFBFB" fill-opacity="1.000000" fill-rule="nonzero"/>
	</g>
</svg>
