
<svg width="18" height="16" viewBox="0 0 18 16" xmlns="http://www.w3.org/2000/svg">
<path fill-rule="evenodd" clip-rule="evenodd" d="M3.40467 2.88106C3.94517 4.12305 4.29766 5.65304 4.51445 6.84978C4.77052 8.26331 4.82168 9.68386 4.82168 11.0802V11.8336H13.9072C14.0005 9.53259 14.912 7.3229 16.5005 5.50024H5.48448V4.50024H18V5.37136L17.672 5.70538C17.6718 5.70556 17.6721 5.7052 17.672 5.70538C15.8735 7.54245 14.899 9.85335 14.8992 12.2269V12.8336H3.82168V11.0802C3.82168 9.7033 3.77052 8.35318 3.53047 7.02804C3.31781 5.85411 2.98153 4.41478 2.48773 3.2801C2.2403 2.71154 1.96618 2.25008 1.67173 1.93781C1.38121 1.62973 1.10508 1.50024 0.833313 1.50024V0.500244C1.46736 0.500244 1.98909 0.816763 2.39928 1.25176C2.80553 1.68258 3.13495 2.26128 3.40467 2.88106ZM4.44976 15.3221C4.05911 14.9862 3.82168 14.5129 3.82168 14.0002H4.82168C4.82168 14.1948 4.91095 14.3998 5.1018 14.564C5.295 14.7301 5.57117 14.8336 5.87207 14.8336C6.17297 14.8336 6.44914 14.7301 6.64234 14.564C6.8332 14.3998 6.92246 14.1948 6.92246 14.0002H7.92246C7.92246 14.5129 7.68503 14.9862 7.29438 15.3221C6.90607 15.6561 6.39355 15.8336 5.87207 15.8336C5.3506 15.8336 4.83807 15.6561 4.44976 15.3221ZM9.87612 15.3221C9.48547 14.9862 9.24804 14.5129 9.24804 14.0002H10.248C10.248 14.1948 10.3373 14.3998 10.5282 14.564C10.7214 14.7301 10.9975 14.8336 11.2984 14.8336C11.5993 14.8336 11.8755 14.7301 12.0687 14.564C12.2596 14.3998 12.3488 14.1948 12.3488 14.0002H13.3488C13.3488 14.5129 13.1114 14.9862 12.7207 15.3221C12.3324 15.6561 11.8199 15.8336 11.2984 15.8336C10.777 15.8336 10.2644 15.6561 9.87612 15.3221Z"/>
</svg>
