<svg width="20.000000" height="16.000000" viewBox="0 0 20 16" fill="none" xmlns="http://www.w3.org/2000/svg" xmlns:xlink="http://www.w3.org/1999/xlink">
	<desc>
			Created with Pixso.
	</desc>
	<defs>
		<clipPath id="clip592_2944">
			<rect id="Shop--Streamline-Guidance" width="20.000000" height="16.000000" transform="translate(0.000000 -0.999756)" fill="white" fill-opacity="0"/>
		</clipPath>
	</defs>
	<g clip-path="url(#clip592_2944)">
		<path id="Vector" d="M4.32 13C4.32 13.35 4.48 13.69 4.77 13.94C5.06 14.19 5.46 14.33 5.87 14.33C6.28 14.33 6.67 14.19 6.96 13.94C7.25 13.69 7.42 13.35 7.42 13M9.74 13C9.74 13.35 9.91 13.69 10.2 13.94C10.49 14.19 10.88 14.33 11.29 14.33C11.71 14.33 12.1 14.19 12.39 13.94C12.68 13.69 12.84 13.35 12.84 13M5.48 4L17.5 4L17.5 4.16L17.31 4.35C15.43 6.27 14.39 8.71 14.39 11.22L14.39 11.33L4.32 11.33L4.32 10.08C4.32 8.69 4.27 7.3 4.02 5.93C3.59 3.56 2.64 0 0.83 0" stroke="#453866" stroke-opacity="1.000000" stroke-width="1.000000"/>
	</g>
</svg>
