<svg width="176" height="166" viewBox="0 0 176 166"  xmlns="http://www.w3.org/2000/svg">
<g filter="url(#filter0_d_865_93)">
<svg width="168" height="158" viewBox="0 0 168 158" fill="none" xmlns="http://www.w3.org/2000/svg">
<path d="M72.9763 7.12536C77.6253 -1.78381 90.3746 -1.78381 95.0236 7.12536C98.3846 13.5662 106.528 15.766 112.675 11.8937L114.309 10.8643C122.445 5.73861 132.947 12.0752 132.206 21.663C131.656 28.7696 137.537 34.7113 144.649 34.2357L146.741 34.0958C156.205 33.4628 162.107 44.1635 156.522 51.831C152.347 57.5632 154.555 65.7107 161.018 68.6279C169.908 72.64 169.908 85.36 161.018 89.3721C154.555 92.2893 152.347 100.437 156.522 106.169C162.107 113.837 156.205 124.537 146.741 123.904L144.649 123.764C137.537 123.289 131.656 129.23 132.206 136.337C132.947 145.925 122.445 152.261 114.309 147.136L112.675 146.106C106.528 142.234 98.3846 144.434 95.0236 150.875C90.3746 159.784 77.6253 159.784 72.9763 150.875C69.6154 144.434 61.472 142.234 55.325 146.106L53.691 147.136C45.5545 152.261 35.0528 145.925 35.7941 136.337C36.3436 129.23 30.4634 123.289 23.3514 123.764L21.2593 123.904C11.7946 124.537 5.89271 113.837 11.4775 106.169C15.6526 100.437 13.4452 92.2893 6.98148 89.3721C-1.90805 85.36 -1.90805 72.64 6.98148 68.6279C13.4452 65.7107 15.6526 57.5632 11.4775 51.831C5.89271 44.1635 11.7946 33.4628 21.2593 34.0958L23.3514 34.2357C30.4634 34.7113 36.3436 28.7696 35.7941 21.663C35.0528 12.0752 45.5545 5.73861 53.691 10.8643L55.325 11.8937C61.472 15.766 69.6154 13.5662 72.9763 7.12536Z" fill="#AEA1BE"/>
</svg>
</g>
<defs>
<filter id="filter0_d_865_93" x="0.814453" y="0.943481" width="174.371" height="164.113" filterUnits="userSpaceOnUse" color-interpolation-filters="sRGB">
<feFlood flood-opacity="0" result="BackgroundImageFix"/>
<feColorMatrix in="SourceAlpha" type="matrix" values="0 0 0 0 0 0 0 0 0 0 0 0 0 0 0 0 0 0 127 0" result="hardAlpha"/>
<feOffset dy="2"/>
<feGaussianBlur stdDeviation="1.75"/>
<feComposite in2="hardAlpha" operator="out"/>
<feColorMatrix type="matrix" values="0 0 0 0 0 0 0 0 0 0 0 0 0 0 0 0 0 0 0.25 0"/>
<feBlend mode="normal" in2="BackgroundImageFix" result="effect1_dropShadow_865_93"/>
<feBlend mode="normal" in="SourceGraphic" in2="effect1_dropShadow_865_93" result="shape"/>
</filter>
</defs>
</svg>
