<svg width="21.000000" height="17.000000" viewBox="0 0 21 17" fill="none" xmlns="http://www.w3.org/2000/svg" xmlns:xlink="http://www.w3.org/1999/xlink">
	<desc>
			Created with Pixso.
	</desc>
	<defs>
		<clipPath id="clip436_243">
			<rect id="V-Kontakte-Logo--Streamline-Logos 1" width="21.004257" height="16.570898" transform="translate(-0.004395 -0.129883)" fill="white" fill-opacity="0"/>
		</clipPath>
	</defs>
	<rect id="V-Kontakte-Logo--Streamline-Logos 1" width="21.004257" height="16.570898" transform="translate(-0.004395 -0.129883)" fill="#FFFFFF" fill-opacity="0"/>
	<g clip-path="url(#clip436_243)">
		<path id="Vector" d="M3.48 3.35C3.48 6.05 5.53 9.75 9.09 10.58L9.09 3.35L11.9 3.35L11.9 6.92C14.05 6.54 16.57 5.29 16.57 3.35L19.38 3.35C19.38 5.34 17.82 7.02 15.75 8.04C17.88 8.95 20.32 10.89 20.32 12.95L17.51 12.95C17.43 10.98 13.95 9.58 11.9 9.34L11.9 12.95L10.49 12.95C4.51 12.95 0.67 7.6 0.67 3.35L3.48 3.35Z" stroke="#FBFBFB" stroke-opacity="1.000000" stroke-width="1.000000" stroke-linejoin="round"/>
	</g>
</svg>
