<svg width="21.000000" height="17.000000" viewBox="0 0 21 17" fill="none" xmlns="http://www.w3.org/2000/svg" xmlns:xlink="http://www.w3.org/1999/xlink">
	<desc>
			Created with Pixso.
	</desc>
	<defs>
		<clipPath id="clip435_215">
			<rect id="Whatsapp-Logo--Streamline-Logos" width="21.004257" height="16.570898" transform="translate(-0.983887 0.000000)" fill="white" fill-opacity="0"/>
		</clipPath>
	</defs>
	<rect id="Whatsapp-Logo--Streamline-Logos" width="21.004257" height="16.570898" transform="translate(-0.983887 0.000000)" fill="#FFFFFF" fill-opacity="0"/>
	<g clip-path="url(#clip435_215)">
		<path id="Vector" d="M7.1 10.18C5.35 8.8 4.05 6.03 5.57 4.83C6.02 4.48 6.62 4.44 6.99 4.45C7.21 4.46 7.39 4.56 7.52 4.7L8.35 5.62C8.47 5.75 8.53 5.91 8.51 6.08C8.5 6.24 8.41 6.39 8.26 6.51L7.47 7.13C7.62 7.48 8.08 8.3 8.78 8.86C9.48 9.41 10.53 9.78 10.97 9.89L11.76 9.27C11.91 9.16 12.1 9.08 12.31 9.07C12.51 9.06 12.72 9.1 12.89 9.2L14.05 9.85C14.23 9.95 14.36 10.1 14.37 10.27C14.38 10.56 14.33 11.04 13.89 11.39C12.37 12.59 8.86 11.57 7.1 10.18Z" stroke="#FBFBFB" stroke-opacity="1.000000" stroke-width="1.000000" stroke-linejoin="round"/>
		<path id="Vector" d="M18.7 8.28C18.7 4.28 14.59 1.03 9.51 1.03C4.44 1.03 0.32 4.28 0.32 8.28C0.32 9.6 0.77 10.84 1.55 11.91L0.78 15.17L4.92 14.56C6.32 15.2 7.9 15.53 9.51 15.53C14.59 15.53 18.7 12.28 18.7 8.28Z" stroke="#FBFBFB" stroke-opacity="1.000000" stroke-width="1.000000" stroke-linejoin="round"/>
	</g>
</svg>
